{
.appVersion = "3151";
.formatVersion = 3;
DisplayStrings = (
"abc?",
"Æ",
"Õ",
"Ø",
"Œ",
Q,
vawtax,
"Ð",
Ytoungberry,
"æ",
oe
);
date = "2021-03-17 19:02:20 +0000";
familyName = "Coaster Sans";
fontMaster = (
{
id = m01;
metricValues = (
{
over = 16;
pos = 800;
},
{
over = 16;
pos = 700;
},
{
over = 20;
pos = 500;
},
{
over = -16;
},
{
over = -16;
pos = -200;
}
);
name = Regular;
userData = {
GSCornerRadius = 20;
};
}
);
glyphs = (
{
glyphname = A;
kernLeft = A;
kernRight = A;
lastChange = "2023-10-23 10:45:24 +0000";
layers = (
{
anchors = (
{
name = bottom;
pos = (406,0);
},
{
name = ogonek;
pos = (724,10);
},
{
name = top;
pos = (406,700);
}
);
layerId = m01;
shapes = (
{
closed = 1;
nodes = (
(281,0,ls),
(287,0,o),
(292,4,o),
(294,10,cs),
(361,229,ls),
(364,240,o),
(357,251,o),
(345,251,cs),
(328,251,ls),
(320,251,o),
(313,244,o),
(313,236,cs),
(313,109,ls),
(313,101,o),
(320,124,o),
(328,124,cs),
(501,124,ls),
(509,124,o),
(516,101,o),
(516,109,cs),
(516,236,ls),
(516,244,o),
(509,251,o),
(501,251,cs),
(470,251,ls),
(458,251,o),
(450,240,o),
(453,229,cs),
(517,10,ls),
(519,3,o),
(525,0,o),
(531,0,cs),
(783,0,ls),
(796,0,o),
(804,11,o),
(800,23,cs),
(557,691,ls),
(555,696,o),
(550,700,o),
(544,700,cs),
(266,700,ls),
(260,700,o),
(255,696,o),
(253,691,cs),
(11,23,ls),
(7,11,o),
(15,0,o),
(28,0,cs)
);
},
{
closed = 1;
nodes = (
(398,347,ls),
(400,353,o),
(405,357,o),
(409,357,cs),
(413,357,o),
(417,354,o),
(419,347,cs),
(441,273,ls),
(444,262,o),
(436,251,o),
(424,251,cs),
(391,251,ls),
(379,251,o),
(372,262,o),
(375,273,cs)
);
}
);
width = 811;
}
);
unicode = 65;
},
{
glyphname = AE;
kernLeft = A;
kernRight = E;
lastChange = "2023-10-23 09:17:33 +0000";
layers = (
{
layerId = m01;
shapes = (
{
closed = 1;
nodes = (
(251,0,ls),
(257,0,o),
(262,4,o),
(264,10,cs),
(331,229,ls),
(334,240,o),
(327,251,o),
(315,251,cs),
(298,251,ls),
(290,251,o),
(283,244,o),
(283,236,cs),
(283,109,ls),
(283,101,o),
(290,124,o),
(298,124,cs),
(471,124,ls),
(479,124,o),
(486,101,o),
(486,109,cs),
(486,236,ls),
(486,244,o),
(479,251,o),
(471,251,cs),
(440,251,ls),
(428,251,o),
(420,240,o),
(423,229,cs),
(487,10,ls),
(489,3,o),
(495,0,o),
(501,0,cs),
(733,0,ls),
(746,0,o),
(754,11,o),
(750,23,cs),
(527,691,ls),
(525,696,o),
(520,700,o),
(514,700,cs),
(266,700,ls),
(260,700,o),
(255,696,o),
(253,691,cs),
(11,23,ls),
(7,11,o),
(15,0,o),
(28,0,cs)
);
},
{
closed = 1;
nodes = (
(368,347,ls),
(370,353,o),
(375,357,o),
(379,357,cs),
(383,357,o),
(387,354,o),
(389,347,cs),
(411,273,ls),
(414,262,o),
(406,251,o),
(394,251,cs),
(361,251,ls),
(349,251,o),
(342,262,o),
(345,273,cs)
);
},
{
closed = 1;
nodes = (
(913,0,ls),
(922,0,o),
(928,6,o),
(928,15,cs),
(928,192,ls),
(928,201,o),
(922,207,o),
(913,207,cs),
(706,207,ls),
(698,207,o),
(691,214,o),
(691,222,cs),
(691,267,ls),
(691,275,o),
(698,282,o),
(706,282,cs),
(819,282,ls),
(828,282,o),
(834,288,o),
(834,297,cs),
(834,414,ls),
(834,423,o),
(828,429,o),
(819,429,cs),
(706,429,ls),
(698,429,o),
(691,436,o),
(691,444,cs),
(691,489,ls),
(691,497,o),
(698,504,o),
(706,504,cs),
(896,504,ls),
(905,504,o),
(911,510,o),
(911,519,cs),
(911,686,ls),
(911,695,o),
(905,701,o),
(896,701,cs),
(633,701,ls),
(631,701,o),
(630,701,o),
(628,701,cs),
(628,700,o),
(627,700,o),
(626,700,cs),
(448,700,ls),
(439,700,o),
(432,694,o),
(433,685,cs),
(493,15,ls),
(494,6,o),
(499,0,o),
(508,0,cs)
);
}
);
width = 943;
}
);
metricLeft = A;
metricRight = E;
unicode = 198;
},
{
glyphname = B;
kernLeft = L;
kernRight = B;
lastChange = "2023-10-23 10:48:03 +0000";
layers = (
{
anchors = (
{
name = bottom;
pos = (307,0);
},
{
name = center;
pos = (307,350);
},
{
name = top;
pos = (307,700);
}
);
background = {
shapes = (
{
closed = 1;
nodes = (
(15,0,l),
(15,700,l),
(251,700,l),
(645,698,o),
(594,418,o),
(535,340,c),
(547,387,l),
(659,295,o),
(634,-1,o),
(316,0,cs),
(308,0,o),
(300,0,o),
(292,0,c)
);
},
{
closed = 1;
nodes = (
(317,420,o),
(340,440,o),
(340,467,cs),
(340,491,o),
(317,514,o),
(293,514,cs),
(264,514,o),
(246,491,o),
(246,467,cs),
(246,440,o),
(264,420,o),
(293,420,cs)
);
},
{
closed = 1;
nodes = (
(319,172,o),
(342,192,o),
(342,219,cs),
(342,243,o),
(319,266,o),
(295,266,cs),
(267,266,o),
(248,243,o),
(248,219,cs),
(248,192,o),
(267,172,o),
(295,172,cs)
);
}
);
};
layerId = m01;
shapes = (
{
closed = 1;
nodes = (
(316,0,ls),
(619,-1,o),
(656,267,o),
(562,373,cs),
(558,377,o),
(557,382,o),
(559,387,cs),
(600,495,o),
(587,698,o),
(251,700,cs),
(30,700,ls),
(22,700,o),
(15,693,o),
(15,685,cs),
(15,15,ls),
(15,7,o),
(22,0,o),
(30,0,cs)
);
},
{
closed = 1;
nodes = (
(255,173,o),
(248,180,o),
(248,188,cs),
(248,251,ls),
(248,259,o),
(255,266,o),
(263,266,cs),
(285,266,ls),
(313,266,o),
(334,243,o),
(334,220,cs),
(334,193,o),
(313,173,o),
(285,173,cs),
(263,173,ls)
);
},
{
closed = 1;
nodes = (
(255,419,o),
(248,426,o),
(248,434,cs),
(248,497,ls),
(248,505,o),
(255,512,o),
(263,512,cs),
(285,512,ls),
(313,512,o),
(334,489,o),
(334,466,cs),
(334,439,o),
(313,419,o),
(285,419,cs),
(263,419,ls)
);
}
);
width = 618;
}
);
metricLeft = "=H";
metricRight = "=O";
unicode = 66;
},
{
glyphname = C;
kernLeft = O;
kernRight = O;
lastChange = "2023-10-23 10:48:16 +0000";
layers = (
{
anchors = (
{
name = bottom;
pos = (358,0);
},
{
name = top;
pos = (358,700);
}
);
background = {
shapes = (
{
closed = 1;
nodes = (
(580,-17,o),
(743,148,o),
(743,351,cs),
(743,552,o),
(580,717,o),
(379,717,cs),
(177,717,o),
(14,552,o),
(14,351,cs),
(14,148,o),
(177,-17,o),
(379,-17,cs)
);
},
{
closed = 1;
nodes = (
(342,289,o),
(319,313,o),
(319,345,cs),
(319,373,o),
(342,400,o),
(375,400,cs),
(403,400,o),
(430,373,o),
(430,345,cs),
(430,313,o),
(403,289,o),
(375,289,cs)
);
}
);
};
layerId = m01;
shapes = (
{
closed = 1;
nodes = (
(561,-11,o),
(699,136,o),
(706,305,cs),
(706,313,o),
(699,319,o),
(690,319,cs),
(413,319,ls),
(409,319,o),
(405,317,o),
(402,313,cs),
(395,303,o),
(383,292,o),
(365,290,c),
(332,290,o),
(310,314,o),
(310,345,cs),
(310,372,o),
(332,399,o),
(365,399,cs),
(389,399,o),
(398,388,o),
(410,369,cs),
(413,366,o),
(417,364,o),
(421,364,cs),
(690,364,ls),
(699,364,o),
(706,370,o),
(706,379,cs),
(698,539,o),
(560,710,o),
(369,710,cs),
(171,710,o),
(9,551,o),
(10,351,cs),
(10,154,o),
(171,-11,o),
(369,-11,cs)
);
}
);
width = 716;
}
);
metricLeft = O;
metricRight = O;
unicode = 67;
},
{
glyphname = D;
kernLeft = D;
kernRight = O;
lastChange = "2023-10-23 09:44:09 +0000";
layers = (
{
anchors = (
{
name = bottom;
pos = (332,0);
},
{
name = center;
pos = (332,350);
},
{
name = top;
pos = (332,700);
}
);
background = {
shapes = (
{
closed = 1;
nodes = (
(303,0,o),
(293,0,o),
(303,0,cs),
(831,-4,o),
(817,700,o),
(253,700,c),
(15,700,l),
(15,0,l),
(293,0,l)
);
},
{
closed = 1;
nodes = (
(298,281,l),
(298,392,l),
(342,392,ls),
(376,392,o),
(400,365,o),
(400,337,cs),
(400,305,o),
(376,281,o),
(342,281,cs)
);
},
{
closed = 1;
nodes = (
(298,281,l),
(298,392,l),
(342,392,ls),
(376,392,o),
(400,365,o),
(400,337,cs),
(400,305,o),
(376,281,o),
(342,281,cs)
);
}
);
};
layerId = m01;
shapes = (
{
closed = 1;
nodes = (
(303,0,ls),
(791,0,o),
(777,700,o),
(253,700,cs),
(30,700,ls),
(21,700,o),
(15,694,o),
(15,685,cs),
(15,15,ls),
(15,6,o),
(21,0,o),
(30,0,cs)
);
},
{
closed = 1;
nodes = (
(268,379,ls),
(268,387,o),
(275,394,o),
(283,394,cs),
(312,394,ls),
(346,394,o),
(370,367,o),
(370,339,cs),
(370,307,o),
(346,283,o),
(312,283,cs),
(283,283,ls),
(275,283,o),
(268,290,o),
(268,298,cs)
);
}
);
width = 668;
}
);
metricLeft = "=H";
metricRight = "=O";
unicode = 68;
},
{
glyphname = Eth;
kernLeft = t;
kernRight = D;
lastChange = "2023-10-23 10:03:02 +0000";
layers = (
{
layerId = m01;
shapes = (
{
closed = 1;
nodes = (
(353,0,ls),
(841,0,o),
(827,700,o),
(303,700,cs),
(80,700,ls),
(71,700,o),
(65,694,o),
(65,685,cs),
(65,15,ls),
(65,6,o),
(71,0,o),
(80,0,cs)
);
},
{
closed = 1;
nodes = (
(318,379,ls),
(318,387,o),
(325,394,o),
(333,394,cs),
(362,394,ls),
(396,394,o),
(420,367,o),
(420,339,cs),
(420,307,o),
(396,283,o),
(362,283,cs),
(333,283,ls),
(325,283,o),
(318,290,o),
(318,298,cs)
);
},
{
closed = 1;
nodes = (
(15,261,ls),
(15,250,o),
(24,241,o),
(35,241,cs),
(159,241,ls),
(170,241,o),
(179,250,o),
(179,261,cs),
(179,421,ls),
(179,432,o),
(170,441,o),
(159,441,cs),
(35,441,ls),
(24,441,o),
(15,432,o),
(15,421,cs)
);
}
);
width = 718;
}
);
metricLeft = F;
metricRight = D;
unicode = 208;
},
{
glyphname = E;
kernLeft = L;
lastChange = "2023-10-23 09:47:01 +0000";
layers = (
{
anchors = (
{
name = bottom;
pos = (265,0);
},
{
name = ogonek;
pos = (485,10);
},
{
name = top;
pos = (265,700);
},
{
name = topleft;
pos = (10,700);
}
);
layerId = m01;
shapes = (
{
closed = 1;
nodes = (
(515,0,ls),
(524,0,o),
(530,6,o),
(530,15,cs),
(530,192,ls),
(530,201,o),
(524,207,o),
(515,207,cs),
(308,207,ls),
(300,207,o),
(293,214,o),
(293,222,cs),
(293,267,ls),
(293,275,o),
(300,282,o),
(308,282,cs),
(421,282,ls),
(430,282,o),
(436,288,o),
(436,297,cs),
(436,414,ls),
(436,423,o),
(430,429,o),
(421,429,cs),
(308,429,ls),
(300,429,o),
(293,436,o),
(293,444,cs),
(293,489,ls),
(293,497,o),
(300,504,o),
(308,504,cs),
(498,504,ls),
(507,504,o),
(513,510,o),
(513,519,cs),
(513,686,ls),
(513,695,o),
(507,701,o),
(498,701,cs),
(235,701,ls),
(233,701,o),
(232,701,o),
(230,701,cs),
(230,700,o),
(229,700,o),
(228,700,cs),
(30,700,ls),
(21,700,o),
(15,694,o),
(15,685,cs),
(15,15,ls),
(15,6,o),
(21,0,o),
(30,0,cs)
);
}
);
width = 545;
}
);
metricLeft = L;
metricRight = L;
unicode = 69;
},
{
glyphname = F;
kernLeft = L;
kernRight = F;
lastChange = "2023-10-23 10:45:05 +0000";
layers = (
{
anchors = (
{
name = bottom;
pos = (259,0);
},
{
name = top;
pos = (259,700);
}
);
layerId = m01;
shapes = (
{
closed = 1;
nodes = (
(288,0,ls),
(297,0,o),
(303,6,o),
(303,15,cs),
(303,199,ls),
(303,207,o),
(310,214,o),
(318,214,cs),
(448,214,ls),
(457,214,o),
(463,220,o),
(463,229,cs),
(463,366,ls),
(463,375,o),
(457,381,o),
(448,381,cs),
(318,381,ls),
(310,381,o),
(303,388,o),
(303,396,cs),
(303,469,ls),
(303,477,o),
(310,484,o),
(318,484,cs),
(488,484,ls),
(497,484,o),
(503,490,o),
(503,499,cs),
(503,685,ls),
(503,694,o),
(497,700,o),
(488,700,c),
(30,700,l),
(21,700,o),
(15,694,o),
(15,685,cs),
(15,15,ls),
(15,6,o),
(21,0,o),
(30,0,cs)
);
}
);
width = 513;
}
);
metricLeft = l;
unicode = 70;
},
{
glyphname = G;
kernLeft = O;
kernRight = Q;
lastChange = "2023-10-23 09:44:29 +0000";
layers = (
{
anchors = (
{
name = bottom;
pos = (368,0);
},
{
name = top;
pos = (368,700);
}
);
layerId = m01;
shapes = (
{
closed = 1;
nodes = (
(415,-17,o),
(453,-11,o),
(488,0,cs),
(488,0,o),
(490,0,o),
(491,0,cs),
(698,0,ls),
(707,0,o),
(713,6,o),
(713,15,cs),
(713,188,l),
(714,302,ls),
(714,311,o),
(708,317,o),
(699,317,cs),
(425,318,ls),
(420,318,o),
(416,315,o),
(414,310,cs),
(407,299,o),
(394,291,o),
(371,289,c),
(338,289,o),
(315,313,o),
(315,345,cs),
(315,373,o),
(338,400,o),
(371,400,cs),
(395,400,o),
(404,389,o),
(417,370,cs),
(420,366,o),
(424,364,o),
(428,364,cs),
(705,357,ls),
(714,357,o),
(720,362,o),
(720,372,cs),
(712,535,o),
(570,717,o),
(375,717,cs),
(173,717,o),
(9,555,o),
(10,351,cs),
(10,151,o),
(173,-17,o),
(375,-17,cs)
);
}
);
width = 730;
}
);
metricLeft = "=O";
unicode = 71;
},
{
glyphname = H;
lastChange = "2023-10-12 14:23:00 +0000";
layers = (
{
anchors = (
{
name = bottom;
pos = (338,0);
},
{
name = center;
pos = (338,350);
},
{
name = top;
pos = (338,700);
},
{
name = topleft;
pos = (20,700);
}
);
layerId = m01;
shapes = (
{
closed = 1;
nodes = (
(298,0,ls),
(307,0,o),
(313,6,o),
(313,15,cs),
(313,229,ls),
(313,237,o),
(320,244,o),
(328,244,cs),
(348,244,ls),
(356,244,o),
(363,237,o),
(363,229,cs),
(363,15,ls),
(363,6,o),
(369,0,o),
(378,0,cs),
(646,0,ls),
(655,0,o),
(661,6,o),
(661,15,cs),
(661,685,ls),
(661,694,o),
(655,700,o),
(646,700,cs),
(378,700,ls),
(369,700,o),
(363,694,o),
(363,685,cs),
(363,497,ls),
(363,489,o),
(356,482,o),
(348,482,cs),
(328,482,ls),
(320,482,o),
(313,489,o),
(313,497,cs),
(313,685,ls),
(313,694,o),
(307,700,o),
(298,700,cs),
(30,700,ls),
(21,700,o),
(15,694,o),
(15,685,cs),
(15,15,ls),
(15,6,o),
(21,0,o),
(30,0,cs)
);
}
);
width = 676;
}
);
metricRight = "=|";
unicode = 72;
},
{
glyphname = I;
lastChange = "2023-10-23 08:33:09 +0000";
layers = (
{
anchors = (
{
name = bottom;
pos = (168,0);
},
{
name = ogonek;
pos = (298,10);
},
{
name = top;
pos = (168,700);
},
{
name = topleft;
pos = (25,700);
}
);
layerId = m01;
shapes = (
{
closed = 1;
nodes = (
(15,15,ls),
(15,6,o),
(21,0,o),
(30,0,cs),
(298,0,ls),
(307,0,o),
(313,6,o),
(313,15,cs),
(313,685,ls),
(313,694,o),
(307,700,o),
(298,700,cs),
(30,700,ls),
(21,700,o),
(15,694,o),
(15,685,cs)
);
}
);
width = 328;
}
);
metricLeft = l;
metricRight = l;
unicode = 73;
},
{
glyphname = IJ;
kernLeft = I;
kernRight = J;
lastChange = "2023-10-23 09:19:50 +0000";
layers = (
{
anchors = (
{
name = bottom;
pos = (645,0);
},
{
name = ogonek;
pos = (293,10);
},
{
name = top;
pos = (823,700);
},
{
name = topleft;
pos = (20,700);
}
);
layerId = m01;
shapes = (
{
closed = 1;
nodes = (
(10,15,ls),
(10,6,o),
(16,0,o),
(25,0,cs),
(293,0,ls),
(302,0,o),
(308,6,o),
(308,15,cs),
(308,685,ls),
(308,694,o),
(302,700,o),
(293,700,cs),
(25,700,ls),
(16,700,o),
(10,694,o),
(10,685,cs)
);
},
{
closed = 1;
nodes = (
(340,-103,o),
(953,-100,o),
(953,281,cs),
(953,641,ls),
(953,650,o),
(947,656,o),
(938,656,cs),
(690,656,ls),
(681,656,o),
(675,650,o),
(675,641,cs),
(675,312,ls),
(675,262,o),
(608,262,o),
(608,311,cs),
(608,337,ls),
(608,346,o),
(602,352,o),
(593,352,cs),
(355,352,ls),
(346,352,o),
(340,346,o),
(340,337,cs),
(340,281,ls)
);
}
);
width = 968;
}
);
unicode = 306;
},
{
glyphname = J;
kernLeft = J;
kernRight = J;
lastChange = "2023-10-23 10:44:55 +0000";
layers = (
{
anchors = (
{
name = bottom;
pos = (320,0);
},
{
name = top;
pos = (498,700);
}
);
layerId = m01;
shapes = (
{
closed = 1;
nodes = (
(15,-103,o),
(628,-100,o),
(628,281,cs),
(628,641,ls),
(628,650,o),
(622,656,o),
(613,656,cs),
(365,656,ls),
(356,656,o),
(350,650,o),
(350,641,cs),
(350,312,ls),
(350,262,o),
(283,262,o),
(283,311,cs),
(283,337,ls),
(283,346,o),
(277,352,o),
(268,352,cs),
(30,352,ls),
(21,352,o),
(15,346,o),
(15,337,cs),
(15,281,ls)
);
}
);
width = 643;
}
);
metricLeft = l;
metricRight = l;
unicode = 74;
},
{
glyphname = K;
kernLeft = K;
kernRight = K;
lastChange = "2023-10-23 10:48:26 +0000";
layers = (
{
anchors = (
{
name = bottom;
pos = (349,0);
},
{
name = top;
pos = (349,700);
}
);
layerId = m01;
shapes = (
{
closed = 1;
nodes = (
(278,0,ls),
(287,0,o),
(293,6,o),
(293,15,cs),
(293,237,ls),
(293,265,o),
(309,251,o),
(313,240,cs),
(407,9,ls),
(409,3,o),
(414,0,o),
(419,0,cs),
(662,0,ls),
(675,0,o),
(684,11,o),
(679,24,cs),
(551,352,ls),
(548,359,o),
(548,364,o),
(550,372,cs),
(637,650,ls),
(640,661,o),
(633,671,o),
(621,671,cs),
(376,671,ls),
(370,671,o),
(364,666,o),
(362,660,cs),
(310,477,ls),
(308,469,o),
(304,464,o),
(300,464,cs),
(296,464,o),
(293,471,o),
(293,479,cs),
(293,685,ls),
(293,694,o),
(287,700,o),
(278,700,cs),
(30,700,ls),
(21,700,o),
(15,694,o),
(15,685,cs),
(15,15,ls),
(15,6,o),
(21,0,o),
(30,0,cs)
);
}
);
width = 690;
}
);
metricLeft = l;
unicode = 75;
},
{
glyphname = L;
kernLeft = L;
kernRight = L;
lastChange = "2023-10-23 09:37:34 +0000";
layers = (
{
anchors = (
{
name = bottom;
pos = (286,0);
},
{
name = center;
pos = (286,350);
},
{
name = top;
pos = (286,700);
},
{
name = topright;
pos = (542,700);
}
);
layerId = m01;
shapes = (
{
closed = 1;
nodes = (
(531,0,ls),
(540,0,o),
(546,6,o),
(546,15,cs),
(546,207,ls),
(546,216,o),
(540,222,o),
(531,222,cs),
(318,222,ls),
(310,222,o),
(303,229,o),
(303,237,cs),
(303,685,ls),
(303,694,o),
(297,700,o),
(288,700,cs),
(30,700,ls),
(21,700,o),
(15,694,o),
(15,685,cs),
(15,15,ls),
(15,6,o),
(21,0,o),
(30,0,cs)
);
}
);
width = 561;
}
);
unicode = 76;
},
{
glyphname = M;
kernLeft = M;
kernRight = M;
lastChange = "2023-10-23 09:38:59 +0000";
layers = (
{
anchors = (
{
name = bottom;
pos = (494,0);
},
{
name = top;
pos = (494,700);
}
);
layerId = m01;
shapes = (
{
closed = 1;
nodes = (
(860,688,ls),
(859,696,o),
(853,700,o),
(846,700,cs),
(586,700,ls),
(580,700,o),
(574,695,o),
(572,689,cs),
(510,499,ls),
(507,491,o),
(505,486,o),
(500,486,cs),
(495,486,o),
(491,490,o),
(488,499,cs),
(414,690,ls),
(411,697,o),
(406,700,o),
(400,700,cs),
(130,700,ls),
(123,700,o),
(117,696,o),
(116,688,cs),
(10,19,ls),
(8,8,o),
(16,0,o),
(26,0,cs),
(284,0,ls),
(291,0,o),
(297,4,o),
(298,12,cs),
(338,241,ls),
(340,250,o),
(343,255,o),
(348,255,cs),
(352,255,o),
(355,250,o),
(358,242,cs),
(403,121,ls),
(405,115,o),
(411,110,o),
(417,110,cs),
(579,110,ls),
(585,110,o),
(591,115,o),
(593,121,cs),
(640,256,ls),
(643,264,o),
(646,269,o),
(651,269,cs),
(655,269,o),
(659,264,o),
(660,255,cs),
(690,12,ls),
(691,4,o),
(697,0,o),
(704,0,cs),
(961,0,ls),
(971,0,o),
(979,9,o),
(977,19,cs)
);
}
);
width = 987;
}
);
unicode = 77;
},
{
glyphname = N;
lastChange = "2023-10-12 14:23:00 +0000";
layers = (
{
anchors = (
{
name = bottom;
pos = (328,0);
},
{
name = top;
pos = (328,700);
}
);
background = {
shapes = (
{
closed = 1;
nodes = (
(15,0,l),
(293,0,l),
(290,241,l),
(301,241,l),
(363,0,l),
(641,0,l),
(641,700,l),
(363,700,l),
(363,466,l),
(350,466,l),
(293,700,l),
(15,700,l)
);
}
);
};
layerId = m01;
shapes = (
{
closed = 1;
nodes = (
(278,0,ls),
(287,0,o),
(293,6,o),
(293,15,cs),
(286,245,ls),
(286,255,o),
(288,261,o),
(291,261,cs),
(294,261,o),
(297,257,o),
(299,250,cs),
(360,13,ls),
(362,5,o),
(367,0,o),
(376,0,cs),
(626,0,ls),
(635,0,o),
(641,6,o),
(641,15,cs),
(641,685,ls),
(641,694,o),
(635,700,o),
(626,700,cs),
(378,700,ls),
(369,700,o),
(363,694,o),
(363,685,cs),
(368,462,ls),
(368,453,o),
(365,446,o),
(362,446,cs),
(358,446,o),
(354,451,o),
(352,457,cs),
(296,687,ls),
(294,695,o),
(289,700,o),
(280,700,cs),
(30,700,ls),
(21,700,o),
(15,694,o),
(15,685,cs),
(15,15,ls),
(15,6,o),
(21,0,o),
(30,0,cs)
);
}
);
width = 656;
}
);
metricLeft = "=H";
metricRight = "=H";
unicode = 78;
},
{
glyphname = O;
kernLeft = O;
kernRight = O;
lastChange = "2023-10-23 09:34:18 +0000";
layers = (
{
anchors = (
{
name = bottom;
pos = (364,10);
},
{
name = center;
pos = (364,349);
},
{
name = ogonek;
pos = (650,20);
},
{
name = top;
pos = (364,688);
},
{
name = topleft;
pos = (25,688);
},
{
name = topright;
pos = (702,688);
}
);
layerId = m01;
shapes = (
{
closed = 1;
nodes = (
(559,-7,o),
(717,153,o),
(717,350,cs),
(717,544,o),
(559,705,o),
(364,705,cs),
(168,705,o),
(10,544,o),
(10,350,cs),
(10,153,o),
(168,-7,o),
(364,-7,cs)
);
},
{
closed = 1;
nodes = (
(322,299,o),
(318,305,o),
(318,310,cs),
(318,377,ls),
(318,382,o),
(322,385,o),
(328,385,cs),
(398,385,ls),
(402,385,o),
(408,382,o),
(408,377,cs),
(408,310,ls),
(408,305,o),
(402,299,o),
(398,299,cs),
(328,299,ls)
);
}
);
width = 727;
}
);
unicode = 79;
},
{
glyphname = Oslash;
kernLeft = O;
kernRight = O;
lastChange = "2023-10-23 09:18:52 +0000";
layers = (
{
layerId = m01;
shapes = (
{
closed = 1;
nodes = (
(576,-17,o),
(739,148,o),
(739,351,cs),
(739,402,o),
(729,451,o),
(709,495,cs),
(706,502,o),
(708,509,o),
(713,515,cs),
(730,533,ls),
(738,541,o),
(737,554,o),
(729,562,cs),
(572,712,ls),
(563,721,o),
(551,719,o),
(543,711,cs),
(529,696,ls),
(524,690,o),
(516,689,o),
(508,692,cs),
(467,708,o),
(422,717,o),
(375,717,cs),
(173,717,o),
(10,552,o),
(10,351,cs),
(10,294,o),
(23,240,o),
(46,192,cs),
(50,184,o),
(48,177,o),
(43,171,cs),
(36,163,ls),
(28,155,o),
(29,142,o),
(37,134,cs),
(194,-16,ls),
(202,-24,o),
(215,-24,o),
(223,-15,cs),
(236,-2,ls),
(241,4,o),
(248,5,o),
(255,3,cs),
(293,-10,o),
(333,-17,o),
(375,-17,cs)
);
},
{
closed = 1;
nodes = (
(331,298,o),
(327,304,o),
(327,309,cs),
(327,379,ls),
(327,384,o),
(331,388,o),
(338,388,cs),
(410,388,ls),
(415,388,o),
(421,384,o),
(421,379,cs),
(421,309,ls),
(421,304,o),
(415,298,o),
(410,298,cs),
(338,298,ls)
);
}
);
width = 749;
}
);
metricLeft = O;
metricRight = O;
unicode = 216;
},
{
glyphname = OE;
kernLeft = O;
kernRight = E;
lastChange = "2023-10-23 11:07:24 +0000";
layers = (
{
layerId = m01;
shapes = (
{
closed = 1;
nodes = (
(412,-7,o),
(462,7,o),
(509,31,c),
(509,15,ls),
(509,6,o),
(515,0,o),
(524,0,cs),
(1009,0,ls),
(1018,0,o),
(1024,6,o),
(1024,15,cs),
(1024,192,ls),
(1024,201,o),
(1018,207,o),
(1009,207,cs),
(802,207,ls),
(794,207,o),
(787,214,o),
(787,222,cs),
(787,267,ls),
(787,275,o),
(794,282,o),
(802,282,cs),
(915,282,ls),
(924,282,o),
(930,288,o),
(930,297,cs),
(930,414,ls),
(930,423,o),
(924,429,o),
(915,429,cs),
(802,429,ls),
(794,429,o),
(787,436,o),
(787,444,cs),
(787,489,ls),
(787,497,o),
(794,504,o),
(802,504,cs),
(992,504,ls),
(1001,504,o),
(1007,510,o),
(1007,519,cs),
(1007,686,ls),
(1007,695,o),
(1001,701,o),
(992,701,cs),
(724,701,l),
(724,700,o),
(723,700,o),
(722,700,cs),
(524,700,ls),
(515,700,o),
(509,694,o),
(509,685,cs),
(509,674,l),
(465,694,o),
(416,705,o),
(364,705,cs),
(168,705,o),
(10,545,o),
(10,350,cs),
(10,153,o),
(168,-7,o),
(364,-7,cs)
);
},
{
closed = 1;
nodes = (
(301,299,o),
(298,305,o),
(298,310,cs),
(298,378,ls),
(298,383,o),
(301,387,o),
(308,387,cs),
(378,387,ls),
(383,387,o),
(388,383,o),
(388,378,cs),
(388,310,ls),
(388,305,o),
(383,299,o),
(378,299,cs),
(308,299,ls)
);
}
);
width = 1039;
}
);
metricLeft = O;
metricRight = E;
unicode = 338;
},
{
glyphname = P;
kernLeft = P;
kernRight = P;
lastChange = "2023-10-23 10:48:52 +0000";
layers = (
{
anchors = (
{
name = bottom;
pos = (289,0);
},
{
name = top;
pos = (289,700);
}
);
background = {
shapes = (
{
closed = 1;
nodes = (
(261,398,o),
(238,422,o),
(238,454,cs),
(238,482,o),
(261,509,o),
(294,509,cs),
(322,509,o),
(349,482,o),
(349,454,cs),
(349,422,o),
(322,398,o),
(294,398,cs)
);
}
);
};
layerId = m01;
shapes = (
{
closed = 1;
nodes = (
(268,0,ls),
(277,0,o),
(283,6,o),
(283,15,cs),
(283,183,ls),
(283,191,o),
(289,198,o),
(296,198,cs),
(442,198,o),
(566,279,o),
(566,465,cs),
(566,640,o),
(440,700,o),
(296,700,cs),
(30,700,ls),
(21,700,o),
(15,694,o),
(15,685,cs),
(15,15,ls),
(15,6,o),
(21,0,o),
(30,0,cs)
);
},
{
closed = 1;
nodes = (
(244,487,ls),
(244,494,o),
(249,500,o),
(257,500,cs),
(282,500,ls),
(311,500,o),
(333,476,o),
(333,452,cs),
(333,424,o),
(311,403,o),
(282,403,cs),
(257,403,ls),
(249,403,o),
(244,410,o),
(244,416,cs)
);
}
);
width = 576;
}
);
unicode = 80;
},
{
glyphname = Thorn;
lastChange = "2023-10-13 06:35:37 +0000";
layers = (
{
layerId = m01;
shapes = (
{
closed = 1;
nodes = (
(268,-80,ls),
(277,-80,o),
(283,-74,o),
(283,-65,cs),
(283,63,ls),
(283,71,o),
(289,78,o),
(296,78,cs),
(442,78,o),
(566,159,o),
(566,345,cs),
(566,520,o),
(440,580,o),
(296,580,cs),
(288,580,o),
(283,589,o),
(283,600,cs),
(283,680,ls),
(283,691,o),
(274,700,o),
(263,700,cs),
(35,700,ls),
(24,700,o),
(15,691,o),
(15,680,cs),
(15,-65,ls),
(15,-74,o),
(21,-80,o),
(30,-80,cs)
);
},
{
closed = 1;
nodes = (
(244,367,ls),
(244,374,o),
(249,380,o),
(257,380,cs),
(282,380,ls),
(311,380,o),
(333,356,o),
(333,332,cs),
(333,304,o),
(311,283,o),
(282,283,cs),
(257,283,ls),
(249,283,o),
(244,290,o),
(244,296,cs)
);
}
);
width = 576;
}
);
metricLeft = p;
metricRight = p;
unicode = 222;
},
{
glyphname = Q;
kernLeft = O;
kernRight = Q;
lastChange = "2023-10-23 11:08:14 +0000";
layers = (
{
anchors = (
{
name = bottom;
pos = (418,0);
},
{
name = top;
pos = (418,700);
}
);
layerId = m01;
shapes = (
{
closed = 1;
nodes = (
(778,0,ls),
(787,0,o),
(793,6,o),
(793,15,cs),
(793,234,ls),
(793,243,o),
(787,249,o),
(778,249,cs),
(742,249,l),
(751,280,o),
(760,313,o),
(760,340,cs),
(760,547,o),
(592,717,o),
(386,717,cs),
(178,717,o),
(10,565,o),
(10,358,cs),
(10,149,o),
(178,0,o),
(386,0,cs)
);
},
{
closed = 1;
nodes = (
(342,303,o),
(338,310,o),
(338,315,cs),
(338,387,ls),
(338,392,o),
(342,396,o),
(350,396,cs),
(424,396,ls),
(429,396,o),
(435,392,o),
(435,387,cs),
(435,315,ls),
(435,310,o),
(429,303,o),
(424,303,cs),
(350,303,ls)
);
}
);
width = 808;
}
);
metricLeft = O;
metricRight = H;
unicode = 81;
},
{
glyphname = R;
kernLeft = L;
kernRight = R;
lastChange = "2023-10-23 09:20:36 +0000";
layers = (
{
anchors = (
{
name = bottom;
pos = (336,0);
},
{
name = top;
pos = (336,700);
}
);
layerId = m01;
shapes = (
{
closed = 1;
nodes = (
(278,0,ls),
(287,0,o),
(293,6,o),
(293,15,cs),
(293,203,ls),
(293,211,o),
(296,218,o),
(300,218,cs),
(304,218,o),
(308,213,o),
(310,208,cs),
(376,12,ls),
(379,3,o),
(385,0,o),
(393,0,cs),
(649,0,ls),
(660,0,o),
(665,6,o),
(661,17,cs),
(547,307,ls),
(545,313,o),
(547,318,o),
(551,322,cs),
(591,361,o),
(616,411,o),
(616,475,cs),
(616,604,o),
(519,700,o),
(366,700,cs),
(30,700,ls),
(21,700,o),
(15,694,o),
(15,685,cs),
(15,15,ls),
(15,6,o),
(21,0,o),
(30,0,cs)
);
},
{
closed = 1;
nodes = (
(273,401,o),
(266,408,o),
(266,416,cs),
(266,487,ls),
(266,495,o),
(273,502,o),
(281,502,cs),
(290,502,ls),
(324,502,o),
(348,485,o),
(348,457,cs),
(348,425,o),
(324,401,o),
(290,401,cs),
(281,401,ls)
);
}
);
width = 672;
},
{
associatedMasterId = m01;
background = {
shapes = (
{
closed = 1;
nodes = (
(25,0,l),
(303,0,l),
(303,218,l),
(316,218,ls),
(462,218,o),
(586,333,o),
(586,465,cs),
(586,594,o),
(460,703,o),
(316,700,cs),
(303,699.715,l),
(25,700,l)
);
},
{
closed = 1;
nodes = (
(250,398,o),
(227,422,o),
(227,454,cs),
(227,482,o),
(250,509,o),
(283,509,cs),
(311,509,o),
(338,482,o),
(338,454,cs),
(338,422,o),
(311,398,o),
(283,398,cs)
);
},
{
closed = 1;
nodes = (
(394,0,l),
(672,0,l),
(537,362,l),
(298,252,l)
);
}
);
};
layerId = "848FFDE4-362F-4B4E-A08C-A248D5CEB343";
name = "Apr 1, 21, 15:19";
shapes = (
{
closed = 1;
nodes = (
(25,0,l),
(303,0,l),
(303,206,l),
(318,206,l),
(394,0,l),
(674,0,l),
(553,302,l),
(585,348,o),
(606,415,o),
(606,465,cs),
(606,594,o),
(460,703,o),
(316,700,cs),
(303,699.715,l),
(25,700,l)
);
},
{
closed = 1;
nodes = (
(279,404,o),
(262,422,o),
(262,446,cs),
(262,468,o),
(279,488,o),
(304,488,cs),
(326,488,o),
(346,468,o),
(346,446,cs),
(346,422,o),
(326,404,o),
(304,404,cs)
);
}
);
width = 689;
}
);
metricLeft = "=H";
unicode = 82;
},
{
glyphname = S;
kernLeft = O;
kernRight = S;
lastChange = "2023-10-23 10:49:00 +0000";
layers = (
{
anchors = (
{
name = bottom;
pos = (307,0);
},
{
name = top;
pos = (307,700);
}
);
layerId = m01;
shapes = (
{
closed = 1;
nodes = (
(443,-23,o),
(594,77,o),
(601,214,c),
(605,291,o),
(576,359,o),
(510,397,c),
(463,422,o),
(394,427,o),
(328,431,c),
(311,432,l),
(283,433,o),
(266,452,o),
(267,473,c),
(267,491,o),
(289,508,o),
(315,507,c),
(336,505,o),
(341,490,o),
(351,476,c),
(354,472,o),
(358,470,o),
(361,470,c),
(582,452,l),
(591,452,o),
(598,458,o),
(599,467,c),
(597,576,o),
(490,710,o),
(330,719,c),
(165,728,o),
(24,629,o),
(16,493,c),
(12,423,o),
(46,349,o),
(103,312,c),
(154,279,o),
(225,279,o),
(302,274,c),
(308,273,l),
(334,272,o),
(352,254,o),
(351,231,c),
(349,213,o),
(329,197,o),
(303,198,c),
(282,201,o),
(267,217,o),
(257,231,c),
(254,234,o),
(250,237,o),
(247,237,c),
(25,253,l),
(16,253,o),
(9,247,o),
(10,237,c),
(13,123,o),
(120,-4,o),
(279,-13,c)
);
}
);
width = 611;
}
);
metricLeft = O;
metricRight = O;
unicode = 83;
},
{
glyphname = T;
kernLeft = T;
kernRight = T;
lastChange = "2023-10-23 10:47:17 +0000";
layers = (
{
anchors = (
{
name = bottom;
pos = (325,0);
},
{
name = center;
pos = (325,350);
},
{
name = top;
pos = (325,700);
}
);
layerId = m01;
shapes = (
{
closed = 1;
nodes = (
(451,-1,ls),
(460,-1,o),
(466,5,o),
(466,14,cs),
(466,438,ls),
(466,446,o),
(473,453,o),
(481,453,cs),
(622,453,ls),
(631,453,o),
(637,459,o),
(637,468,cs),
(637,685,ls),
(637,694,o),
(631,700,o),
(622,700,cs),
(25,700,ls),
(16,700,o),
(10,694,o),
(10,685,cs),
(10,468,ls),
(10,459,o),
(16,453,o),
(25,453,cs),
(165,453,ls),
(173,453,o),
(180,446,o),
(180,438,cs),
(180,14,ls),
(180,5,o),
(186,-1,o),
(195,-1,cs)
);
}
);
width = 650;
}
);
unicode = 84;
},
{
glyphname = U;
kernLeft = U;
kernRight = U;
lastChange = "2023-10-23 10:14:20 +0000";
layers = (
{
anchors = (
{
name = bottom;
pos = (342,0);
},
{
name = ogonek;
pos = (602,10);
},
{
name = top;
pos = (342,700);
},
{
name = topright;
pos = (647,700);
}
);
layerId = m01;
shapes = (
{
closed = 1;
nodes = (
(668,685,ls),
(668,693,o),
(661,700,o),
(653,700,cs),
(378,700,ls),
(370,700,o),
(363,693,o),
(363,685,cs),
(366,333,ls),
(366,284,o),
(317,285,o),
(317,333,cs),
(320,685,ls),
(320,693,o),
(313,700,o),
(305,700,cs),
(30,700,ls),
(22,700,o),
(15,693,o),
(15,685,cs),
(15,272,ls),
(15,-103,o),
(670,-101,o),
(669,271,cs)
);
}
);
width = 684;
}
);
metricLeft = H;
metricRight = "=|";
unicode = 85;
},
{
glyphname = V;
kernLeft = V;
kernRight = V;
lastChange = "2023-10-23 09:43:10 +0000";
layers = (
{
anchors = (
{
name = bottom;
pos = (410,0);
},
{
name = top;
pos = (410,700);
}
);
layerId = m01;
shapes = (
{
closed = 1;
nodes = (
(552,0,ls),
(558,0,o),
(563,4,o),
(565,9,cs),
(809,677,ls),
(813,689,o),
(806,700,o),
(793,700,cs),
(545,700,ls),
(539,700,o),
(534,696,o),
(532,690,cs),
(430,375,ls),
(427,366,o),
(424,363,o),
(419,363,cs),
(414,363,o),
(410,366,o),
(407,375,cs),
(309,690,ls),
(307,696,o),
(302,700,o),
(296,700,cs),
(28,701,ls),
(15,701,o),
(7,690,o),
(11,678,cs),
(251,9,ls),
(253,4,o),
(258,0,o),
(264,0,cs)
);
}
);
width = 820;
}
);
unicode = 86;
},
{
glyphname = W;
kernLeft = W;
kernRight = W;
lastChange = "2023-10-23 09:46:16 +0000";
layers = (
{
anchors = (
{
name = bottom;
pos = (497,0);
},
{
name = top;
pos = (497,700);
}
);
layerId = m01;
shapes = (
{
closed = 1;
nodes = (
(417,1,ls),
(423,1,o),
(429,6,o),
(431,12,cs),
(495,202,ls),
(498,210,o),
(501,215,o),
(506,215,cs),
(510,215,o),
(514,210,o),
(517,202,cs),
(589,11,ls),
(592,4,o),
(597,1,o),
(603,1,cs),
(863,1,ls),
(870,1,o),
(876,5,o),
(877,13,cs),
(993,681,ls),
(995,691,o),
(987,700,o),
(977,700,cs),
(728,699,ls),
(721,699,o),
(715,695,o),
(714,688,cs),
(670,440,ls),
(668,431,o),
(665,427,o),
(660,427,cs),
(655,427,o),
(651,432,o),
(649,440,cs),
(594,621,ls),
(592,627,o),
(586,632,o),
(579,632,cs),
(438,631,ls),
(431,631,o),
(427,627,o),
(425,620,cs),
(368,435,ls),
(366,427,o),
(363,422,o),
(358,422,cs),
(353,422,o),
(350,427,o),
(348,436,cs),
(302,688,ls),
(301,696,o),
(295,700,o),
(288,700,cs),
(26,700,ls),
(16,700,o),
(8,691,o),
(10,681,cs),
(127,13,ls),
(128,5,o),
(134,1,o),
(141,1,cs)
);
}
);
width = 1003;
}
);
metricLeft = "=V";
metricRight = "=V";
unicode = 87;
},
{
glyphname = X;
lastChange = "2023-10-23 10:42:55 +0000";
layers = (
{
anchors = (
{
name = bottom;
pos = (369,0);
},
{
name = top;
pos = (369,700);
}
);
background = {
shapes = (
{
closed = 1;
nodes = (
(443,700,l),
(374,549,l),
(359,549,l),
(290,700,l),
(10,701,l),
(197,329,l),
(177,414,l),
(177,355,l),
(11,0,l),
(290,0,l),
(359,156,l),
(374,156,l),
(443,0,l),
(721,0,l),
(553,355,l),
(553,370,l),
(722,701,l)
);
}
);
};
layerId = m01;
shapes = (
{
closed = 1;
nodes = (
(276,0,ls),
(284,0,o),
(290,3,o),
(293,11,cs),
(354,153,ls),
(356,159,o),
(361,161,o),
(366,161,cs),
(370,161,o),
(375,158,o),
(377,153,cs),
(441,11,ls),
(444,4,o),
(450,0,o),
(458,0,cs),
(707,0,ls),
(718,0,o),
(723,7,o),
(718,18,cs),
(563,363,ls),
(562,366,o),
(562,369,o),
(564,373,cs),
(716,683,ls),
(721,694,o),
(716,701,o),
(705,701,cs),
(461,700,ls),
(453,700,o),
(446,696,o),
(443,688,cs),
(381,538,ls),
(379,532,o),
(374,530,o),
(370,530,cs),
(366,530,o),
(361,532,o),
(359,538,cs),
(297,688,ls),
(294,696,o),
(287,700,o),
(279,700,cs),
(30,701,ls),
(19,701,o),
(14,694,o),
(19,683,cs),
(176,368,ls),
(178,365,o),
(178,359,o),
(176,356,cs),
(19,18,ls),
(14,7,o),
(19,0,o),
(30,0,cs)
);
}
);
width = 737;
}
);
metricRight = "=|";
unicode = 88;
},
{
glyphname = Y;
kernLeft = Y;
kernRight = Y;
lastChange = "2023-10-23 09:46:33 +0000";
layers = (
{
anchors = (
{
name = bottom;
pos = (359,0);
},
{
name = top;
pos = (359,700);
},
{
name = topleft;
pos = (20,700);
}
);
layerId = m01;
shapes = (
{
closed = 1;
nodes = (
(480,0,ls),
(489,0,o),
(495,6,o),
(495,15,cs),
(495,292,ls),
(495,294,o),
(496,297,o),
(497,300,cs),
(705,683,ls),
(710,693,o),
(706,701,o),
(695,701,cs),
(448,701,ls),
(440,701,o),
(434,697,o),
(431,690,cs),
(372,550,ls),
(369,543,o),
(364,539,o),
(360,539,cs),
(356,539,o),
(350,543,o),
(347,550,cs),
(287,690,ls),
(284,697,o),
(278,701,o),
(270,701,cs),
(23,701,ls),
(12,701,o),
(7,693,o),
(12,683,cs),
(214,299,ls),
(215,296,o),
(216,294,o),
(216,292,cs),
(216,15,ls),
(216,6,o),
(222,0,o),
(231,0,cs)
);
}
);
width = 717;
}
);
unicode = 89;
},
{
glyphname = Z;
lastChange = "2023-10-23 09:17:09 +0000";
layers = (
{
anchors = (
{
name = bottom;
pos = (321,0);
},
{
name = center;
pos = (321,350);
},
{
name = top;
pos = (321,700);
}
);
layerId = m01;
shapes = (
{
closed = 1;
nodes = (
(611,0,ls),
(620,0,o),
(626,7,o),
(626,16,cs),
(626,208,ls),
(626,217,o),
(620,223,o),
(611,223,cs),
(404,223,ls),
(391,223,o),
(385,229,o),
(392,236,cs),
(619,475,ls),
(624,481,o),
(626,487,o),
(626,494,cs),
(624,685,ls),
(624,694,o),
(618,700,o),
(609,700,cs),
(30,700,ls),
(21,700,o),
(15,694,o),
(15,685,cs),
(16,496,ls),
(16,487,o),
(22,481,o),
(31,481,cs),
(227,483,ls),
(241,483,o),
(247,475,o),
(239,466,cs),
(25,225,ls),
(20,220,o),
(18,213,o),
(18,206,cs),
(16,15,ls),
(16,6,o),
(22,0,o),
(31,0,cs)
);
}
);
width = 641;
}
);
metricLeft = "=H";
metricRight = "=H";
unicode = 90;
},
{
glyphname = a;
kernLeft = o;
kernRight = n;
lastChange = "2023-10-23 11:15:41 +0000";
layers = (
{
anchors = (
{
name = bottom;
pos = (277,0);
},
{
name = ogonek;
pos = (498,10);
},
{
name = top;
pos = (277,519);
}
);
layerId = m01;
shapes = (
{
closed = 1;
nodes = (
(535,-1,o),
(541,6,o),
(541,15,cs),
(543,257,ls),
(544,426,o),
(410,519,o),
(273,521,cs),
(134,522,o),
(11,397,o),
(10,259,cs),
(9,105,o),
(121,0,o),
(254,0,c),
(526,0,l)
);
},
{
closed = 1;
nodes = (
(246,212,o),
(243,216,o),
(243,220,cs),
(243,273,ls),
(243,278,o),
(246,282,o),
(251,282,cs),
(307,282,ls),
(311,282,o),
(315,278,o),
(315,273,cs),
(315,220,ls),
(315,216,o),
(311,212,o),
(307,212,cs),
(251,212,ls)
);
}
);
width = 555;
}
);
metricLeft = "=o";
metricRight = "=n";
unicode = 97;
},
{
glyphname = ae;
kernLeft = o;
kernRight = o;
lastChange = "2023-10-23 11:05:59 +0000";
layers = (
{
layerId = m01;
shapes = (
{
closed = 1;
nodes = (
(512,-1,o),
(518,6,o),
(518,15,cs),
(520,256,ls),
(521,424,o),
(408,517,o),
(271,518,cs),
(133,519,o),
(11,395,o),
(10,258,cs),
(9,105,o),
(121,0,o),
(253,0,c),
(504,0,l)
);
},
{
closed = 1;
nodes = (
(245,211,o),
(242,215,o),
(242,219,cs),
(242,272,ls),
(242,277,o),
(245,281,o),
(250,281,cs),
(306,281,ls),
(310,281,o),
(314,277,o),
(314,272,cs),
(314,219,ls),
(314,215,o),
(310,211,o),
(306,211,cs),
(250,211,ls)
);
},
{
closed = 1;
nodes = (
(828,-8,o),
(921,79,o),
(940,185,cs),
(942,195,o),
(936,200,o),
(924,200,cs),
(731,200,ls),
(720,200,o),
(664,137,o),
(660,210,cs),
(660,221,o),
(667,227,o),
(676,227,cs),
(933,227,ls),
(940,227,o),
(946,232,o),
(947,239,cs),
(957,360,o),
(857,516,o),
(700,517,cs),
(557,517,o),
(438,399,o),
(438,255,cs),
(438,112,o),
(557,-8,o),
(700,-8,cs)
);
},
{
closed = 1;
nodes = (
(667,309,o),
(660,314,o),
(660,322,cs),
(660,342,o),
(677,356,o),
(693,356,cs),
(711,356,o),
(726,342,o),
(726,322,cs),
(726,314,o),
(721,309,o),
(711,309,cs),
(676,309,ls)
);
}
);
width = 958;
}
);
metricLeft = a;
metricRight = e;
unicode = 230;
},
{
glyphname = b;
kernRight = o;
lastChange = "2023-10-23 10:38:40 +0000";
layers = (
{
anchors = (
{
name = bottom;
pos = (283,0);
},
{
name = center;
pos = (283,250);
},
{
name = top;
pos = (283,500);
}
);
background = {
shapes = (
{
closed = 1;
nodes = (
(458,522,o),
(321,522,cs),
(276,522,o),
(188,494,o),
(142,472,c),
(293,466,l),
(293,712,l),
(23,712,l),
(23,262,l),
(23,87,o),
(162,-10,o),
(303,-10,cs),
(447,-10,o),
(574,119,o),
(574,262,cs),
(574,421,o)
);
},
{
closed = 1;
nodes = (
(345,236,o),
(328,217,o),
(305,217,cs),
(285,217,o),
(266,236,o),
(266,256,cs),
(266,281,o),
(285,296,o),
(305,296,cs),
(328,296,o),
(345,281,o),
(345,256,cs)
);
}
);
};
layerId = m01;
shapes = (
{
closed = 1;
nodes = (
(285,0,l),
(29,0,ls),
(22,0,o),
(15,7,o),
(15,15,cs),
(15,685,ls),
(15,693,o),
(22,700,o),
(29,700,cs),
(260,700,ls),
(268,700,o),
(274,693,o),
(274,685,cs),
(274,515,ls),
(274,505,o),
(283,500,o),
(292,500,cs),
(303,500,ls),
(440,500,o),
(556,396,o),
(556,237,cs),
(556,96,o),
(432,0,o),
(291,0,cs)
);
},
{
closed = 1;
nodes = (
(290,214,o),
(308,230,o),
(308,248,cs),
(308,270,o),
(290,286,o),
(266,286,cs),
(246,286,ls),
(239,286,o),
(233,279,o),
(233,273,cs),
(233,226,ls),
(233,219,o),
(239,214,o),
(246,214,cs),
(253,214,o),
(259,214,o),
(266,214,cs)
);
}
);
width = 566;
}
);
metricLeft = l;
metricRight = "=o";
unicode = 98;
},
{
glyphname = c;
kernLeft = o;
kernRight = o;
lastChange = "2023-10-23 11:07:39 +0000";
layers = (
{
anchors = (
{
name = bottom;
pos = (269,0);
},
{
name = top;
pos = (269,500);
}
);
layerId = m01;
shapes = (
{
closed = 1;
nodes = (
(418,-16,o),
(520,91,o),
(527,214,cs),
(527,222,o),
(520,228,o),
(511,228,cs),
(310,228,ls),
(306,228,o),
(303,226,o),
(300,223,cs),
(295,216,o),
(286,209,o),
(273,207,c),
(249,207,o),
(232,225,o),
(232,248,cs),
(232,269,o),
(249,289,o),
(273,289,cs),
(291,289,o),
(297,281,o),
(306,269,cs),
(309,265,o),
(313,263,o),
(317,263,cs),
(511,263,ls),
(520,263,o),
(527,270,o),
(527,279,cs),
(519,395,o),
(417,520,o),
(276,520,cs),
(129,520,o),
(9,402,o),
(10,252,cs),
(10,107,o),
(129,-16,o),
(276,-16,cs)
);
}
);
width = 537;
}
);
metricLeft = "=o";
metricRight = "=o";
unicode = 99;
},
{
glyphname = d;
kernLeft = o;
kernRight = l;
lastChange = "2023-10-23 11:13:09 +0000";
layers = (
{
anchors = (
{
name = bottom;
pos = (283,0);
},
{
name = center;
pos = (283,250);
},
{
name = top;
pos = (283,800);
},
{
name = topright;
pos = (545,800);
}
);
layerId = m01;
shapes = (
{
closed = 1;
nodes = (
(280,0,l),
(535,0,ls),
(543,0,o),
(550,7,o),
(550,15,cs),
(550,685,ls),
(550,693,o),
(543,700,o),
(535,700,cs),
(305,700,ls),
(297,700,o),
(290,693,o),
(290,685,cs),
(290,515,ls),
(290,505,o),
(282,500,o),
(272,500,cs),
(262,500,ls),
(125,500,o),
(10,396,o),
(10,237,cs),
(10,96,o),
(132,0,o),
(273,0,cs)
);
},
{
closed = 1;
nodes = (
(265,215,o),
(248,230,o),
(248,248,cs),
(248,270,o),
(265,285,o),
(289,285,cs),
(308,285,ls),
(316,285,o),
(322,279,o),
(322,273,cs),
(322,226,ls),
(322,220,o),
(316,215,o),
(308,215,cs),
(289,215,ls)
);
}
);
width = 565;
}
);
metricLeft = o;
metricRight = l;
unicode = 100;
},
{
glyphname = eth;
lastChange = "2023-10-13 06:41:44 +0000";
layers = (
{
layerId = m01;
shapes = (
{
closed = 1;
nodes = (
(535,0,ls),
(543,0,o),
(550,7,o),
(550,15,cs),
(550,356,ls),
(550,367,o),
(559,376,o),
(570,376,cs),
(585,376,ls),
(596,376,o),
(605,385,o),
(605,396,cs),
(605,576,ls),
(605,587,o),
(596,596,o),
(585,596,cs),
(570,596,ls),
(559,596,o),
(550,605,o),
(550,616,cs),
(550,685,ls),
(550,693,o),
(543,700,o),
(535,700,cs),
(305,700,ls),
(297,700,o),
(290,693,o),
(290,685,cs),
(290,515,ls),
(290,505,o),
(282,500,o),
(272,500,cs),
(262,500,ls),
(125,500,o),
(10,396,o),
(10,237,cs),
(10,96,o),
(132,0,o),
(273,0,cs)
);
},
{
closed = 1;
nodes = (
(244,277,o),
(263,297,o),
(290,297,cs),
(311,297,ls),
(319,297,o),
(326,290,o),
(326,282,cs),
(326,222,ls),
(326,214,o),
(319,207,o),
(311,207,cs),
(290,207,ls),
(263,207,o),
(244,228,o),
(244,251,cs)
);
}
);
width = 620;
}
);
metricLeft = d;
unicode = 240;
},
{
glyphname = e;
kernLeft = o;
kernRight = o;
lastChange = "2023-10-23 11:05:15 +0000";
layers = (
{
anchors = (
{
name = bottom;
pos = (264,0);
},
{
name = ogonek;
pos = (474,10);
},
{
name = top;
pos = (264,500);
}
);
background = {
shapes = (
{
closed = 1;
nodes = (
(425,-17,o),
(542,99,o),
(542,251,cs),
(542,404,o),
(425,519,o),
(277,519,cs),
(130,519,o),
(11,404,o),
(11,251,cs),
(11,99,o),
(130,-17,o),
(277,-17,cs)
);
}
);
};
layerId = m01;
shapes = (
{
closed = 1;
nodes = (
(401,-10,o),
(496,78,o),
(515,185,cs),
(517,194,o),
(510,200,o),
(499,200,cs),
(305,200,ls),
(293,200,o),
(238,137,o),
(234,209,cs),
(234,221,o),
(240,226,o),
(249,226,cs),
(508,226,ls),
(515,226,o),
(521,231,o),
(522,239,cs),
(533,361,o),
(432,518,o),
(274,519,cs),
(129,519,o),
(10,401,o),
(10,255,cs),
(10,110,o),
(129,-10,o),
(274,-10,cs)
);
},
{
closed = 1;
nodes = (
(240,309,o),
(234,314,o),
(234,322,cs),
(234,343,o),
(250,357,o),
(267,357,cs),
(285,357,o),
(300,343,o),
(300,322,cs),
(300,314,o),
(294,309,o),
(285,309,cs),
(248,309,ls)
);
}
);
width = 533;
}
);
metricLeft = "=o";
metricRight = "=o";
unicode = 101;
},
{
glyphname = f;
kernLeft = t;
kernRight = t;
lastChange = "2023-10-23 11:03:31 +0000";
layers = (
{
anchors = (
{
name = bottom;
pos = (216,0);
},
{
name = top;
pos = (216,800);
}
);
layerId = m01;
shapes = (
{
closed = 1;
nodes = (
(301,0,ls),
(310,0,o),
(317,6,o),
(317,16,cs),
(317,252,ls),
(317,261,o),
(323,267,o),
(332,267,cs),
(393,267,ls),
(402,267,o),
(409,273,o),
(409,283,cs),
(409,415,ls),
(409,424,o),
(402,431,o),
(393,431,cs),
(337,431,ls),
(326,431,o),
(317,438,o),
(317,447,cs),
(317,510,o),
(369,488,o),
(409,486,cs),
(420,485,o),
(426,490,o),
(426,500,cs),
(426,672,ls),
(426,681,o),
(421,685,o),
(410,685,cs),
(76,685,o),
(60,680,o),
(60,440,cs),
(60,435,o),
(51,431,o),
(40,431,cs),
(31,431,ls),
(21,431,o),
(15,424,o),
(15,415,cs),
(15,283,ls),
(15,273,o),
(21,267,o),
(31,267,cs),
(40,267,ls),
(51,267,o),
(60,258,o),
(60,247,cs),
(60,16,ls),
(60,6,o),
(67,0,o),
(76,0,cs)
);
}
);
width = 441;
}
);
metricLeft = n;
unicode = 102;
},
{
glyphname = g;
kernLeft = o;
kernRight = g;
lastChange = "2023-10-23 10:09:44 +0000";
layers = (
{
anchors = (
{
name = bottom;
pos = (276,-200);
},
{
name = top;
pos = (276,500);
}
);
layerId = m01;
shapes = (
{
closed = 1;
nodes = (
(477,-200,o),
(541,-111,o),
(541,53,cs),
(541,485,ls),
(541,494,o),
(535,500,o),
(526,500,cs),
(275,500,ls),
(128,500,o),
(10,410,o),
(10,257,cs),
(10,105,o),
(130,18,o),
(276,18,cs),
(296,18,o),
(316,23,o),
(316,3,cs),
(316,0,ls),
(316,-10,o),
(310,-16,o),
(301,-16,cs),
(65,-15,ls),
(56,-15,o),
(50,-21,o),
(50,-30,cs),
(50,-185,ls),
(50,-194,o),
(56,-200,o),
(65,-200,cs),
(235,-200,ls)
);
},
{
closed = 1;
nodes = (
(254,217,o),
(235,238,o),
(235,261,cs),
(235,287,o),
(254,307,o),
(281,307,cs),
(302,307,ls),
(310,307,o),
(317,300,o),
(317,292,cs),
(317,232,ls),
(317,224,o),
(310,217,o),
(302,217,cs),
(281,217,ls)
);
}
);
width = 556;
},
{
associatedMasterId = m01;
layerId = "6EC4DF25-BCF0-45EF-B676-98ADEC157C9A";
name = "Apr 22, 21, 14:38";
shapes = (
{
closed = 1;
nodes = (
(424,18,o),
(541,99,o),
(541,251,cs),
(541,404,o),
(424,500,o),
(276,500,cs),
(129,500,o),
(10,410,o),
(10,257,cs),
(10,105,o),
(130,18,o),
(276,18,cs)
);
},
{
closed = 1;
nodes = (
(477,-212,o),
(541,-111,o),
(541,53,cs),
(541,249,l),
(372,249,l),
(316,168,l),
(316,-15,l),
(50,-14,l),
(50,-210,l),
(235,-211,ls)
);
},
{
closed = 1;
nodes = (
(275,370,l),
(349,249,l),
(541,249,l),
(541,500,l),
(275,500,l)
);
},
{
closed = 1;
nodes = (
(317,317,l),
(317,227,l),
(281,227,ls),
(254,227,o),
(235,248,o),
(235,271,cs),
(235,297,o),
(254,317,o),
(281,317,cs)
);
},
{
closed = 1;
nodes = (
(317,317,l),
(317,237,l),
(281,237,ls),
(254,237,o),
(235,248,o),
(235,271,cs),
(235,297,o),
(254,317,o),
(281,317,cs)
);
}
);
width = 557;
}
);
metricLeft = "=o";
metricRight = l;
unicode = 103;
},
{
glyphname = h;
kernRight = n;
lastChange = "2023-10-23 10:39:12 +0000";
layers = (
{
anchors = (
{
name = bottom;
pos = (307,0);
},
{
name = center;
pos = (307,400);
},
{
name = top;
pos = (307,800);
}
);
layerId = m01;
shapes = (
{
closed = 1;
nodes = (
(270,0,ls),
(278,0,o),
(285,7,o),
(285,15,cs),
(285,245,ls),
(285,289,o),
(339,288,o),
(340,245,cs),
(343,15,ls),
(343,7,o),
(350,0,o),
(358,0,cs),
(593,0,ls),
(602,0,o),
(608,6,o),
(608,15,cs),
(607,290,ls),
(607,430,o),
(532,510,o),
(388,510,cs),
(368,510,o),
(335,504,o),
(305,498,cs),
(294,496,o),
(285,503,o),
(285,514,cs),
(285,685,ls),
(285,693,o),
(278,700,o),
(270,700,cs),
(30,700,ls),
(22,700,o),
(15,693,o),
(15,685,cs),
(15,15,ls),
(15,7,o),
(22,0,o),
(30,0,cs)
);
}
);
width = 620;
}
);
metricLeft = n;
metricRight = n;
unicode = 104;
},
{
glyphname = i;
lastChange = "2023-10-12 14:23:00 +0000";
layers = (
{
anchors = (
{
name = bottom;
pos = (150,0);
}
);
layerId = m01;
shapes = (
{
closed = 1;
nodes = (
(15,15,ls),
(15,6,o),
(21,0,o),
(30,0,cs),
(270,0,ls),
(279,0,o),
(285,6,o),
(285,15,cs),
(285,485,ls),
(285,494,o),
(279,500,o),
(270,500,cs),
(30,500,ls),
(21,500,o),
(15,494,o),
(15,485,cs)
);
},
{
closed = 1;
nodes = (
(222,520,o),
(277,574,o),
(277,643,cs),
(277,708,o),
(222,763,o),
(152,763,cs),
(84,763,o),
(28,708,o),
(28,643,cs),
(28,574,o),
(84,520,o),
(152,520,cs)
);
}
);
width = 300;
}
);
metricLeft = "=l";
metricRight = "=l";
unicode = 105;
},
{
glyphname = idotless;
lastChange = "2023-10-12 14:23:00 +0000";
layers = (
{
anchors = (
{
name = bottom;
pos = (150,0);
},
{
name = ogonek;
pos = (270,10);
},
{
name = top;
pos = (150,500);
}
);
layerId = m01;
shapes = (
{
closed = 1;
nodes = (
(15,15,ls),
(15,6,o),
(21,0,o),
(30,0,cs),
(270,0,ls),
(279,0,o),
(285,6,o),
(285,15,cs),
(285,485,ls),
(285,494,o),
(279,500,o),
(270,500,cs),
(30,500,ls),
(21,500,o),
(15,494,o),
(15,485,cs)
);
}
);
width = 300;
}
);
metricLeft = i;
metricRight = i;
unicode = 305;
},
{
glyphname = j;
kernLeft = j;
kernRight = j;
lastChange = "2023-10-23 10:40:38 +0000";
layers = (
{
layerId = m01;
shapes = (
{
closed = 1;
nodes = (
(15,-128,o),
(538,-125,o),
(538,150,cs),
(538,487,ls),
(538,495,o),
(533,500,o),
(526,500,cs),
(314,500,ls),
(306,500,o),
(301,495,o),
(301,487,cs),
(301,177,ls),
(301,134,o),
(244,134,o),
(244,176,cs),
(244,198,ls),
(244,206,o),
(239,211,o),
(231,211,cs),
(28,211,ls),
(20,211,o),
(15,206,o),
(15,198,cs),
(15,150,ls)
);
}
);
width = 553;
}
);
metricLeft = "=l";
metricRight = "=l";
unicode = 106;
},
{
glyphname = k;
kernLeft = K;
kernRight = K;
lastChange = "2023-10-23 10:39:22 +0000";
layers = (
{
anchors = (
{
name = bottom;
pos = (338,0);
},
{
name = top;
pos = (338,800);
}
);
layerId = m01;
shapes = (
{
closed = 1;
nodes = (
(265,0,ls),
(274,0,o),
(280,6,o),
(280,15,cs),
(280,237,ls),
(280,246,o),
(281,252,o),
(282,252,cs),
(290,252,o),
(297,248,o),
(300,240,cs),
(390,12,ls),
(393,4,o),
(400,0,o),
(408,0,cs),
(647,0,ls),
(658,0,o),
(663,6,o),
(659,17,cs),
(538,352,ls),
(535,360,o),
(534,365,o),
(539,372,cs),
(624,482,ls),
(632,493,o),
(624,500,o),
(613,500,cs),
(374,500,ls),
(366,500,o),
(360,497,o),
(356,491,cs),
(301,413,ls),
(297,407,o),
(292,404,o),
(287,404,cs),
(282,404,o),
(280,410,o),
(280,419,cs),
(280,685,ls),
(280,694,o),
(274,700,o),
(265,700,cs),
(25,700,ls),
(16,700,o),
(10,694,o),
(10,685,cs),
(10,15,ls),
(10,6,o),
(16,0,o),
(25,0,cs)
);
}
);
width = 670;
}
);
metricRight = K;
unicode = 107;
},
{
glyphname = l;
lastChange = "2023-10-12 14:23:00 +0000";
layers = (
{
anchors = (
{
name = bottom;
pos = (150,0);
},
{
name = center;
pos = (150,400);
},
{
name = top;
pos = (150,800);
},
{
name = topright;
pos = (280,800);
}
);
layerId = m01;
shapes = (
{
closed = 1;
nodes = (
(15,15,ls),
(15,7,o),
(22,0,o),
(30,0,cs),
(270,0,ls),
(278,0,o),
(285,7,o),
(285,15,cs),
(285,685,ls),
(285,693,o),
(278,700,o),
(270,700,cs),
(30,700,ls),
(22,700,o),
(15,693,o),
(15,685,cs)
);
}
);
width = 300;
}
);
unicode = 108;
},
{
glyphname = m;
kernLeft = n;
kernRight = n;
lastChange = "2023-10-23 10:28:30 +0000";
layers = (
{
anchors = (
{
name = bottom;
pos = (473,0);
},
{
name = top;
pos = (473,500);
}
);
layerId = m01;
shapes = (
{
closed = 1;
nodes = (
(270,0,ls),
(279,0,o),
(285,6,o),
(285,15,cs),
(285,245,ls),
(285,287,o),
(339,287,o),
(340,245,cs),
(343,15,ls),
(343,6,o),
(349,0,o),
(358,0,cs),
(593,0,ls),
(602,0,o),
(608,6,o),
(608,15,cs),
(607,245,ls),
(607,284,o),
(662,287,o),
(663,245,cs),
(666,15,ls),
(666,6,o),
(672,0,o),
(681,0,cs),
(916,0,ls),
(925,0,o),
(931,6,o),
(931,15,cs),
(930,290,ls),
(930,430,o),
(843,510,o),
(698,510,cs),
(635,510,o),
(594,488,o),
(564,468,cs),
(557,464,o),
(550,465,o),
(545,471,cs),
(507,512,o),
(464,509,o),
(409,509,cs),
(371,509,o),
(339,497,o),
(315,485,cs),
(300,477,o),
(284,476,o),
(284,483,cs),
(284,485,ls),
(285,495,o),
(280,500,o),
(270,500,cs),
(30,500,ls),
(21,500,o),
(15,494,o),
(15,485,cs),
(15,15,ls),
(15,6,o),
(21,0,o),
(30,0,cs)
);
}
);
width = 943;
}
);
metricLeft = "=n";
metricRight = "=n";
unicode = 109;
},
{
glyphname = n;
kernLeft = n;
kernRight = n;
lastChange = "2023-10-23 10:28:46 +0000";
layers = (
{
anchors = (
{
name = bottom;
pos = (309,0);
},
{
name = top;
pos = (309,500);
}
);
background = {
shapes = (
{
closed = 1;
nodes = (
(305,0,l),
(305,245,ls),
(305,289,o),
(359,288,o),
(360,245,cs),
(363,0,l),
(628,0,l),
(627,290,l),
(627,430,o),
(552,510,o),
(408,510,cs),
(377,510,o),
(312,496,o),
(280,488,c),
(305,458,l),
(305,518,l),
(35,518,l),
(35,0,l)
);
}
);
};
layerId = m01;
shapes = (
{
closed = 1;
nodes = (
(270,0,ls),
(278,0,o),
(285,7,o),
(285,15,cs),
(285,245,ls),
(285,289,o),
(338,288,o),
(339,245,cs),
(343,15,ls),
(343,7,o),
(350,0,o),
(358,0,cs),
(593,0,ls),
(602,0,o),
(608,6,o),
(608,15,cs),
(607,284,ls),
(606,424,o),
(532,504,o),
(388,504,cs),
(357,504,o),
(336,499,o),
(319,493,cs),
(301,486,o),
(268,458,o),
(271,458,cs),
(277,458,o),
(281,463,o),
(282,472,cs),
(283,483,ls),
(284,492,o),
(277,500,o),
(268,500,cs),
(30,500,ls),
(22,500,o),
(15,493,o),
(15,485,cs),
(15,15,ls),
(15,7,o),
(22,0,o),
(30,0,cs)
);
}
);
width = 620;
}
);
metricLeft = l;
unicode = 110;
},
{
glyphname = o;
kernLeft = o;
kernRight = o;
lastChange = "2023-10-23 11:04:12 +0000";
layers = (
{
anchors = (
{
name = bottom;
pos = (268,0);
},
{
name = center;
pos = (268,250);
},
{
name = ogonek;
pos = (482,10);
},
{
name = top;
pos = (268,500);
},
{
name = topright;
pos = (515,500);
}
);
background = {
shapes = (
{
closed = 1;
nodes = (
(434,-17,o),
(551,104,o),
(551,251,cs),
(551,399,o),
(434,519,o),
(286,519,cs),
(139,519,o),
(20,399,o),
(20,251,cs),
(20,104,o),
(139,-17,o),
(286,-17,cs)
);
},
{
closed = 1;
nodes = (
(259,207,o),
(243,223,o),
(243,247,cs),
(243,268,o),
(259,287,o),
(283,287,cs),
(304,287,o),
(323,268,o),
(323,247,cs),
(323,223,o),
(304,207,o),
(283,207,cs)
);
}
);
};
layerId = m01;
shapes = (
{
closed = 1;
nodes = (
(415,-6,o),
(530,108,o),
(530,257,cs),
(530,406,o),
(415,519,o),
(270,519,cs),
(127,519,o),
(10,406,o),
(10,257,cs),
(10,108,o),
(127,-6,o),
(270,-6,cs)
);
},
{
closed = 1;
nodes = (
(236,220,o),
(233,224,o),
(233,228,cs),
(233,279,ls),
(233,283,o),
(236,286,o),
(241,286,cs),
(294,286,ls),
(298,286,o),
(302,283,o),
(302,279,cs),
(302,228,ls),
(302,224,o),
(298,220,o),
(294,220,cs),
(241,220,ls)
);
}
);
width = 540;
}
);
unicode = 111;
},
{
glyphname = oslash;
kernLeft = o;
kernRight = o;
lastChange = "2023-10-23 09:22:24 +0000";
layers = (
{
layerId = m01;
shapes = (
{
closed = 1;
nodes = (
(405,-5,o),
(518,109,o),
(518,250,cs),
(518,287,o),
(511,320,o),
(496,350,cs),
(494,355,o),
(495,360,o),
(499,365,cs),
(512,378,ls),
(517,384,o),
(517,392,o),
(511,398,cs),
(402,502,ls),
(395,508,o),
(386,507,o),
(381,501,cs),
(371,492,ls),
(367,488,o),
(362,486,o),
(356,489,cs),
(328,499,o),
(298,506,o),
(264,506,cs),
(123,506,o),
(10,391,o),
(10,250,cs),
(10,211,o),
(19,174,o),
(34,139,cs),
(38,134,o),
(37,130,o),
(32,126,cs),
(28,119,ls),
(23,114,o),
(23,105,o),
(29,100,cs),
(138,-4,ls),
(144,-10,o),
(153,-10,o),
(158,-4,cs),
(166,4,ls),
(170,9,o),
(176,9,o),
(182,8,cs),
(207,0,o),
(234,-5,o),
(264,-5,cs)
);
},
{
closed = 1;
nodes = (
(234,218,o),
(231,222,o),
(231,226,cs),
(231,276,ls),
(231,280,o),
(234,283,o),
(239,283,cs),
(291,283,ls),
(295,283,o),
(299,280,o),
(299,276,cs),
(299,226,ls),
(299,222,o),
(295,218,o),
(291,218,cs),
(239,218,ls)
);
}
);
width = 528;
}
);
metricLeft = o;
metricRight = o;
unicode = 248;
},
{
glyphname = oe;
kernLeft = o;
kernRight = o;
lastChange = "2023-10-23 09:22:24 +0000";
layers = (
{
layerId = m01;
shapes = (
{
closed = 1;
nodes = (
(411,-6,o),
(525,107,o),
(525,254,cs),
(525,402,o),
(411,514,o),
(268,514,cs),
(126,514,o),
(10,402,o),
(10,254,cs),
(10,107,o),
(126,-6,o),
(268,-6,cs)
);
},
{
closed = 1;
nodes = (
(234,218,o),
(231,222,o),
(231,226,cs),
(231,276,ls),
(231,280,o),
(234,283,o),
(239,283,cs),
(291,283,ls),
(295,283,o),
(299,280,o),
(299,276,cs),
(299,226,ls),
(299,222,o),
(295,218,o),
(291,218,cs),
(239,218,ls)
);
},
{
closed = 1;
nodes = (
(747,-10,o),
(841,77,o),
(859,183,cs),
(861,192,o),
(854,198,o),
(844,198,cs),
(652,198,ls),
(640,198,o),
(585,135,o),
(581,207,cs),
(581,218,o),
(587,223,o),
(596,223,cs),
(852,223,ls),
(859,223,o),
(865,228,o),
(866,236,cs),
(877,357,o),
(777,512,o),
(621,513,cs),
(478,513,o),
(360,396,o),
(360,252,cs),
(360,109,o),
(478,-10,o),
(621,-10,cs)
);
},
{
closed = 1;
nodes = (
(587,305,o),
(581,310,o),
(581,318,cs),
(581,339,o),
(597,353,o),
(614,353,cs),
(632,353,o),
(647,339,o),
(647,318,cs),
(647,310,o),
(641,305,o),
(632,305,cs),
(595,305,ls)
);
}
);
width = 877;
}
);
metricLeft = o;
metricRight = e;
unicode = 339;
},
{
glyphname = p;
kernLeft = n;
kernRight = o;
lastChange = "2023-10-23 10:07:01 +0000";
layers = (
{
anchors = (
{
name = bottom;
pos = (280,0);
},
{
name = top;
pos = (280,500);
}
);
layerId = m01;
shapes = (
{
closed = 1;
nodes = (
(259,-201,ls),
(267,-201,o),
(274,-194,o),
(274,-186,cs),
(274,-16,ls),
(274,-6,o),
(282,-1,o),
(292,-1,cs),
(302,-1,ls),
(439,0,o),
(555,104,o),
(555,263,cs),
(555,404,o),
(432,500,o),
(291,499,cs),
(29,499,ls),
(21,499,o),
(15,492,o),
(15,484,cs),
(15,-186,ls),
(15,-194,o),
(21,-201,o),
(29,-201,cs)
);
},
{
closed = 1;
nodes = (
(239,214,o),
(233,219,o),
(233,226,cs),
(233,273,ls),
(233,279,o),
(239,286,o),
(246,286,cs),
(266,286,ls),
(290,286,o),
(308,270,o),
(308,248,cs),
(308,230,o),
(290,214,o),
(266,214,cs),
(246,214,ls)
);
}
);
width = 565;
},
{
associatedMasterId = m01;
layerId = "11946C8A-777D-484B-8D6F-4B7B118EF6B5";
name = "12. Okt. 23, 14:36";
shapes = (
{
closed = 1;
nodes = (
(237,-145,ls),
(245,-145,o),
(251,-139,o),
(251,-130,cs),
(251,-18,ls),
(251,0,o),
(267,-4,o),
(277,-4,cs),
(409,-4,o),
(512,93,o),
(511,247,cs),
(511,385,o),
(400,500,o),
(261,499,cs),
(125,498,o),
(10,415,o),
(10,247,cs),
(11,-130,ls),
(11,-139,o),
(16,-145,o),
(25,-145,cs)
);
},
{
closed = 1;
nodes = (
(226,204,o),
(223,208,o),
(223,212,cs),
(223,263,ls),
(223,268,o),
(226,271,o),
(231,271,cs),
(285,271,ls),
(289,271,o),
(293,268,o),
(293,263,cs),
(293,212,ls),
(293,208,o),
(289,204,o),
(285,204,cs),
(231,204,ls)
);
}
);
width = 521;
}
);
metricLeft = "=l";
metricRight = "=o";
unicode = 112;
},
{
glyphname = thorn;
kernRight = o;
lastChange = "2023-10-23 09:22:31 +0000";
layers = (
{
layerId = m01;
shapes = (
{
closed = 1;
nodes = (
(268,-160,ls),
(277,-160,o),
(283,-154,o),
(283,-145,cs),
(283,-17,ls),
(283,-9,o),
(289,-2,o),
(296,-2,cs),
(442,-2,o),
(566,79,o),
(566,265,cs),
(566,440,o),
(440,500,o),
(296,500,cs),
(288,500,o),
(283,509,o),
(283,520,cs),
(283,580,ls),
(283,591,o),
(274,600,o),
(263,600,cs),
(35,600,ls),
(24,600,o),
(15,591,o),
(15,580,cs),
(15,-145,ls),
(15,-154,o),
(21,-160,o),
(30,-160,cs)
);
},
{
closed = 1;
nodes = (
(244,287,ls),
(244,294,o),
(249,300,o),
(257,300,cs),
(282,300,ls),
(311,300,o),
(333,276,o),
(333,252,cs),
(333,224,o),
(311,203,o),
(282,203,cs),
(257,203,ls),
(249,203,o),
(244,210,o),
(244,216,cs)
);
}
);
width = 600;
}
);
unicode = 254;
},
{
glyphname = q;
kernLeft = o;
kernRight = g;
lastChange = "2023-10-23 09:53:33 +0000";
layers = (
{
anchors = (
{
name = bottom;
pos = (285,0);
},
{
name = top;
pos = (285,500);
}
);
layerId = m01;
shapes = (
{
closed = 1;
nodes = (
(536,-201,ls),
(544,-201,o),
(550,-194,o),
(550,-186,cs),
(550,484,ls),
(550,492,o),
(544,499,o),
(536,499,cs),
(274,499,ls),
(133,500,o),
(10,404,o),
(10,263,cs),
(10,104,o),
(126,0,o),
(263,-1,cs),
(273,-1,ls),
(283,-1,o),
(291,-6,o),
(291,-16,cs),
(291,-186,ls),
(291,-194,o),
(298,-201,o),
(306,-201,cs)
);
},
{
closed = 1;
nodes = (
(265,214,o),
(247,230,o),
(247,248,cs),
(247,270,o),
(265,286,o),
(289,286,cs),
(309,286,ls),
(316,286,o),
(322,279,o),
(322,273,cs),
(322,226,ls),
(322,219,o),
(316,214,o),
(309,214,cs),
(289,214,ls)
);
}
);
width = 565;
}
);
metricLeft = "=o";
metricRight = "=l";
unicode = 113;
},
{
glyphname = r;
kernLeft = r;
kernRight = r;
lastChange = "2023-10-23 11:07:03 +0000";
layers = (
{
anchors = (
{
name = bottom;
pos = (221,0);
},
{
name = top;
pos = (221,500);
}
);
layerId = m01;
shapes = (
{
closed = 1;
nodes = (
(248,0,ls),
(256,0,o),
(263,7,o),
(263,15,cs),
(265,213,ls),
(265,214,o),
(260,273,o),
(320,273,cs),
(411,273,ls),
(419,273,o),
(426,280,o),
(426,288,cs),
(426,485,ls),
(426,493,o),
(419,500,o),
(411,500,cs),
(160,500,ls),
(49,500,o),
(15,404,o),
(15,325,cs),
(15,15,ls),
(15,7,o),
(22,0,o),
(30,0,cs)
);
}
);
width = 436;
}
);
metricLeft = "=l";
unicode = 114;
},
{
glyphname = s;
kernLeft = s;
kernRight = s;
lastChange = "2023-10-23 10:44:27 +0000";
layers = (
{
anchors = (
{
name = bottom;
pos = (245,0);
},
{
name = top;
pos = (245,500);
}
);
background = {
shapes = (
{
closed = 1;
nodes = (
(459,230,l),
(242,230,o),
(317,0,o),
(215,0,c),
(9,1,l),
(9,271,l),
(195,271,o),
(131,500,o),
(214,500,c),
(459,500,l)
);
}
);
};
layerId = m01;
shapes = (
{
closed = 1;
nodes = (
(479,286,ls),
(479,275,o),
(470,265,o),
(459,265,cs),
(331,261,o),
(309,231,o),
(301,200,cs),
(251,11,ls),
(249,4,o),
(241,0,o),
(234,0,cs),
(30,0,ls),
(19,0,o),
(10,9,o),
(10,20,cs),
(10,251,ls),
(10,262,o),
(19,271,o),
(30,271,cs),
(132,273,o),
(149,313,o),
(199,488,cs),
(201,496,o),
(208,500,o),
(216,500,cs),
(459,500,ls),
(470,500,o),
(479,491,o),
(479,480,cs)
);
}
);
width = 489;
}
);
unicode = 115;
},
{
glyphname = germandbls;
kernRight = B;
lastChange = "2023-10-23 11:10:05 +0000";
layers = (
{
anchors = (
{
name = bottom;
pos = (328,0);
},
{
name = top;
pos = (328,800);
}
);
layerId = m01;
shapes = (
{
closed = 1;
nodes = (
(555,-10,o),
(660,95,o),
(660,224,cs),
(660,330,o),
(589,431,o),
(491,459,cs),
(480,462,o),
(474,472,o),
(477,483,c),
(529,687,l),
(531,695,o),
(524,701,o),
(515,701,cs),
(29,700,ls),
(20,700,o),
(15,694,o),
(15,686,cs),
(15,14,ls),
(15,6,o),
(20,0,o),
(29,0,cs),
(219,0,ls),
(228,0,o),
(234,6,o),
(234,14,cs),
(234,486,ls),
(234,494,o),
(240,500,o),
(248,500,cs),
(283,500,ls),
(297,500,o),
(307,488,o),
(304,474,cs),
(277,344,ls),
(275,333,o),
(280,324,o),
(290,321,cs),
(430,283,ls),
(498,264,o),
(487,168,o),
(424,168,cs),
(408,168,o),
(372,194,o),
(360,202,cs),
(350,210,o),
(338,210,o),
(331,201,cs),
(253,92,ls),
(247,84,o),
(246,72,o),
(255,65,cs),
(296,31,o),
(369,-10,o),
(427,-10,cs)
);
}
);
width = 675;
}
);
metricLeft = "=l";
unicode = 223;
},
{
glyphname = t;
kernLeft = t;
kernRight = t;
lastChange = "2023-10-23 10:42:30 +0000";
layers = (
{
anchors = (
{
name = bottom;
pos = (243,0);
},
{
name = center;
pos = (243,250);
},
{
name = top;
pos = (243,500);
},
{
name = topright;
pos = (466,800);
}
);
layerId = m01;
shapes = (
{
closed = 1;
nodes = (
(362,0,ls),
(370,0,o),
(377,7,o),
(377,15,cs),
(377,246,ls),
(377,257,o),
(386,266,o),
(397,266,cs),
(456,266,ls),
(464,266,o),
(471,273,o),
(471,281,cs),
(471,485,ls),
(471,493,o),
(464,500,o),
(456,500,cs),
(397,500,ls),
(386,500,o),
(377,509,o),
(377,520,cs),
(377,685,ls),
(377,693,o),
(370,700,o),
(362,700,cs),
(122,700,ls),
(114,700,o),
(107,693,o),
(107,685,cs),
(107,520,ls),
(107,509,o),
(98,500,o),
(87,500,cs),
(30,500,ls),
(22,500,o),
(15,493,o),
(15,485,cs),
(15,281,ls),
(15,273,o),
(22,266,o),
(30,266,cs),
(87,266,ls),
(98,266,o),
(107,257,o),
(107,246,cs),
(107,15,ls),
(107,7,o),
(114,0,o),
(122,0,cs)
);
}
);
width = 481;
}
);
metricLeft = l;
unicode = 116;
},
{
glyphname = u;
lastChange = "2023-10-23 11:27:57 +0000";
layers = (
{
anchors = (
{
name = bottom;
pos = (282,0);
},
{
name = ogonek;
pos = (484,10);
},
{
name = top;
pos = (282,500);
},
{
name = topright;
pos = (514,500);
}
);
layerId = m01;
shapes = (
{
closed = 1;
nodes = (
(569,479,ls),
(569,491,o),
(561,500,o),
(549,500,cs),
(327,500,ls),
(319,500,o),
(317,494,o),
(317,486,cs),
(315,226,ls),
(315,192,o),
(262,193,o),
(262,226,cs),
(260,486,ls),
(260,494,o),
(262,500,o),
(254,500,cs),
(32,500,ls),
(21,500,o),
(12,491,o),
(12,479,cs),
(17,179,ls),
(21,-84,o),
(560,-86,o),
(564,178,cs)
);
}
);
width = 587;
}
);
metricLeft = o;
metricRight = l;
unicode = 117;
},
{
glyphname = v;
kernLeft = v;
kernRight = v;
lastChange = "2023-10-23 10:43:19 +0000";
layers = (
{
anchors = (
{
name = bottom;
pos = (327,0);
},
{
name = top;
pos = (327,500);
}
);
layerId = m01;
shapes = (
{
closed = 1;
nodes = (
(462,0,ls),
(468,0,o),
(473,4,o),
(475,9,cs),
(642,477,ls),
(647,490,o),
(637,500,o),
(625,500,cs),
(410,500,ls),
(404,500,o),
(398,495,o),
(396,489,cs),
(341,275,ls),
(339,268,o),
(336,264,o),
(333,264,cs),
(330,264,o),
(326,269,o),
(325,275,cs),
(276,489,ls),
(275,495,o),
(268,500,o),
(262,500,cs),
(28,501,ls),
(15,501,o),
(6,491,o),
(11,478,cs),
(179,9,ls),
(181,4,o),
(186,0,o),
(192,0,cs)
);
}
);
width = 653;
}
);
metricLeft = "=V";
metricRight = "=V";
unicode = 118;
},
{
glyphname = w;
kernLeft = w;
kernRight = w;
lastChange = "2023-10-23 10:43:34 +0000";
layers = (
{
anchors = (
{
name = bottom;
pos = (427,0);
},
{
name = top;
pos = (427,500);
}
);
layerId = m01;
shapes = (
{
closed = 1;
nodes = (
(356,1,ls),
(365,1,o),
(371,6,o),
(374,15,cs),
(424,153,ls),
(427,161,o),
(430,164,o),
(433,164,cs),
(437,164,o),
(440,160,o),
(443,153,cs),
(505,14,ls),
(510,4,o),
(514,1,o),
(523,1,cs),
(729,1,ls),
(739,1,o),
(755,6,o),
(757,16,cs),
(846,483,ls),
(848,495,o),
(831,500,o),
(821,500,cs),
(622,500,ls),
(612,500,o),
(606,496,o),
(604,486,cs),
(568,315,ls),
(566,307,o),
(564,302,o),
(560,302,cs),
(556,302,o),
(552,306,o),
(549,314,cs),
(504,446,ls),
(501,455,o),
(496,460,o),
(487,460,cs),
(382,460,ls),
(373,460,o),
(368,455,o),
(365,446,cs),
(319,303,ls),
(317,297,o),
(314,291,o),
(310,291,cs),
(306,291,o),
(301,296,o),
(300,304,cs),
(272,485,ls),
(270,495,o),
(264,500,o),
(255,500,cs),
(35,500,ls),
(25,500,o),
(8,495,o),
(10,483,cs),
(108,15,ls),
(110,5,o),
(127,1,o),
(136,1,cs)
);
}
);
width = 851;
}
);
unicode = 119;
},
{
glyphname = x;
kernLeft = x;
kernRight = x;
lastChange = "2023-10-23 10:12:09 +0000";
layers = (
{
anchors = (
{
name = bottom;
pos = (319,0);
},
{
name = top;
pos = (319,500);
}
);
layerId = m01;
shapes = (
{
closed = 1;
nodes = (
(405,500,ls),
(397,500,o),
(391,498,o),
(387,490,cs),
(325,379,ls),
(318,366,o),
(326,358,o),
(338,367,cs),
(340,368,ls),
(352,377,o),
(348,386,o),
(334,386,cs),
(304,386,ls),
(290,386,o),
(287,376,o),
(299,368,cs),
(304,364,ls),
(316,355,o),
(324,363,o),
(317,377,cs),
(255,489,ls),
(251,497,o),
(245,500,o),
(237,500,cs),
(18,500,ls),
(6,500,o),
(2,492,o),
(8,482,cs),
(149,258,ls),
(157,246,o),
(167,244,o),
(167,256,cs),
(166,268,o),
(155,268,o),
(148,255,cs),
(10,18,ls),
(4,7,o),
(8,0,o),
(20,0,cs),
(234,0,ls),
(242,0,o),
(248,3,o),
(252,10,cs),
(307,95,ls),
(315,107,o),
(310,117,o),
(297,110,cs),
(285,103,o),
(290,94,o),
(305,94,cs),
(326,94,ls),
(341,94,o),
(345,104,o),
(334,110,cs),
(324,116,o),
(320,106,o),
(328,93,cs),
(383,10,ls),
(387,3,o),
(393,0,o),
(401,0,cs),
(619,0,ls),
(631,0,o),
(636,7,o),
(630,18,cs),
(493,259,ls),
(486,271,o),
(475,270,o),
(474,258,cs),
(473,247,o),
(484,252,o),
(492,264,cs),
(628,482,ls),
(634,492,o),
(630,500,o),
(618,500,cs)
);
}
);
width = 638;
}
);
metricLeft = "=5";
unicode = 120;
},
{
glyphname = y;
kernLeft = y;
kernRight = y;
lastChange = "2023-10-23 11:06:25 +0000";
layers = (
{
anchors = (
{
name = bottom;
pos = (333,0);
},
{
name = top;
pos = (333,500);
}
);
layerId = m01;
shapes = (
{
closed = 1;
nodes = (
(331,-180,ls),
(336,-180,o),
(342,-177,o),
(344,-172,cs),
(650,475,ls),
(656,488,o),
(648,500,o),
(634,500,cs),
(401,500,ls),
(396,500,o),
(391,497,o),
(389,491,cs),
(338,368,l),
(333,368,ls),
(330,368,o),
(317,392,o),
(295,445,cs),
(276,491,ls),
(274,497,o),
(269,500,o),
(264,500,cs),
(28,500,ls),
(15,500,o),
(7,489,o),
(12,476,cs),
(145,141,o),
(164,111,o),
(208,20,cs),
(217,1,o),
(166,13,o),
(154,-8,cs),
(70,-156,ls),
(63,-168,o),
(73,-180,o),
(86,-180,cs)
);
}
);
width = 662;
}
);
unicode = 121;
},
{
glyphname = z;
lastChange = "2023-10-23 10:31:52 +0000";
layers = (
{
anchors = (
{
name = bottom;
pos = (255,0);
},
{
name = center;
pos = (255,250);
},
{
name = top;
pos = (255,500);
}
);
layerId = m01;
shapes = (
{
closed = 1;
nodes = (
(479,2,ls),
(487,2,o),
(494,9,o),
(494,17,cs),
(494,185,ls),
(494,193,o),
(487,200,o),
(479,200,cs),
(343,200,l),
(344,201,l),
(490,341,ls),
(493,344,o),
(494,347,o),
(494,350,cs),
(493,485,ls),
(493,493,o),
(486,500,o),
(478,500,cs),
(30,499,ls),
(21,499,o),
(15,493,o),
(15,484,cs),
(16,318,ls),
(16,309,o),
(22,303,o),
(31,303,cs),
(164,305,l),
(156,297,l),
(21,160,ls),
(19,158,o),
(17,155,o),
(17,151,cs),
(16,16,ls),
(16,7,o),
(22,1,o),
(31,1,cs)
);
}
);
width = 506;
}
);
metricLeft = n;
metricRight = n;
unicode = 122;
},
{
glyphname = period;
kernLeft = period;
kernRight = period;
lastChange = "2023-10-23 11:19:41 +0000";
layers = (
{
layerId = m01;
shapes = (
{
closed = 1;
nodes = (
(26,-1,o),
(20,7,o),
(20,17,cs),
(20,130,ls),
(20,142,o),
(26,149,o),
(38,149,cs),
(152,149,ls),
(161,149,o),
(170,142,o),
(170,130,cs),
(170,17,ls),
(170,7,o),
(161,-1,o),
(152,-1,cs),
(38,-1,ls)
);
}
);
width = 190;
}
);
unicode = 46;
},
{
glyphname = comma;
kernLeft = period;
kernRight = period;
lastChange = "2023-10-23 11:21:32 +0000";
layers = (
{
layerId = m01;
shapes = (
{
closed = 1;
nodes = (
(177,7,ls),
(180,10,o),
(182,13,o),
(182,18,cs),
(182,127,ls),
(182,139,o),
(173,145,o),
(163,145,cs),
(54,145,ls),
(42,145,o),
(36,139,o),
(36,127,cs),
(36,12,l),
(10,-94,ls),
(9,-98,o),
(10,-104,o),
(12,-107,cs),
(28,-129,ls),
(35,-139,o),
(52,-140,o),
(60,-130,cs)
);
}
);
width = 192;
}
);
unicode = 44;
},
{
glyphname = colon;
lastChange = "2023-10-13 12:18:45 +0000";
layers = (
{
layerId = m01;
shapes = (
{
closed = 1;
nodes = (
(26,-1,o),
(20,7,o),
(20,17,cs),
(20,130,ls),
(20,142,o),
(26,149,o),
(38,149,cs),
(152,149,ls),
(161,149,o),
(170,142,o),
(170,130,cs),
(170,17,ls),
(170,7,o),
(161,-1,o),
(152,-1,cs),
(38,-1,ls)
);
},
{
closed = 1;
nodes = (
(26,350,o),
(20,358,o),
(20,368,cs),
(20,481,ls),
(20,493,o),
(26,500,o),
(38,500,cs),
(152,500,ls),
(161,500,o),
(170,493,o),
(170,481,cs),
(170,368,ls),
(170,358,o),
(161,350,o),
(152,350,cs),
(38,350,ls)
);
}
);
width = 190;
}
);
unicode = 58;
},
{
glyphname = semicolon;
lastChange = "2023-10-13 11:15:29 +0000";
layers = (
{
layerId = m01;
shapes = (
{
closed = 1;
nodes = (
(52,351,o),
(46,359,o),
(46,369,cs),
(46,482,ls),
(46,494,o),
(52,501,o),
(64,501,cs),
(178,501,ls),
(187,501,o),
(196,494,o),
(196,482,cs),
(196,369,ls),
(196,359,o),
(187,351,o),
(178,351,cs),
(64,351,ls)
);
},
{
closed = 1;
nodes = (
(187,-3,ls),
(190,0,o),
(192,3,o),
(192,8,cs),
(192,117,ls),
(192,129,o),
(183,135,o),
(173,135,cs),
(64,135,ls),
(52,135,o),
(46,129,o),
(46,117,cs),
(46,2,l),
(20,-104,ls),
(19,-108,o),
(20,-114,o),
(22,-117,cs),
(38,-139,ls),
(45,-149,o),
(62,-150,o),
(70,-140,cs)
);
}
);
width = 216;
}
);
unicode = 59;
},
{
glyphname = exclam;
lastChange = "2023-10-13 07:35:27 +0000";
layers = (
{
layerId = m01;
shapes = (
{
closed = 1;
nodes = (
(76,-1,o),
(70,7,o),
(70,17,cs),
(70,130,ls),
(70,142,o),
(76,149,o),
(88,149,cs),
(202,149,ls),
(211,149,o),
(220,142,o),
(220,130,cs),
(220,17,ls),
(220,7,o),
(211,-1,o),
(202,-1,cs),
(88,-1,ls)
);
},
{
closed = 1;
nodes = (
(76,189,o),
(70,197,o),
(70,207,cs),
(50,720,ls),
(50,732,o),
(56,739,o),
(68,739,cs),
(222,739,ls),
(231,739,o),
(240,732,o),
(240,720,cs),
(220,207,ls),
(220,197,o),
(211,189,o),
(202,189,cs),
(88,189,ls)
);
}
);
width = 290;
}
);
unicode = 33;
},
{
glyphname = exclamdown;
lastChange = "2023-10-13 07:48:20 +0000";
layers = (
{
layerId = m01;
shapes = (
{
closed = 1;
nodes = (
(216,650,o),
(222,642,o),
(222,632,cs),
(222,519,ls),
(222,507,o),
(216,500,o),
(204,500,cs),
(90,500,ls),
(81,500,o),
(72,507,o),
(72,519,cs),
(72,632,ls),
(72,642,o),
(81,650,o),
(90,650,cs),
(204,650,ls)
);
},
{
closed = 1;
nodes = (
(215,460,o),
(221,452,o),
(221,442,cs),
(240,-72,ls),
(240,-84,o),
(235,-91,o),
(223,-90,cs),
(69,-90,ls),
(60,-90,o),
(50,-83,o),
(50,-71,cs),
(71,442,ls),
(71,452,o),
(80,460,o),
(89,460,cs),
(203,460,ls)
);
}
);
width = 290;
}
);
unicode = 161;
},
{
glyphname = question;
lastChange = "2024-01-15 12:44:45 +0000";
layers = (
{
layerId = m01;
shapes = (
{
closed = 1;
nodes = (
(310,199,ls),
(319,199,o),
(328,207,o),
(328,217,cs),
(328,274,ls),
(328,283,o),
(334,290,o),
(343,292,cs),
(453,320,o),
(534,419,o),
(534,538,cs),
(534,677,o),
(421,790,o),
(282,790,cs),
(149,790,o),
(41,688,o),
(30,558,cs),
(29,545,o),
(38,536,o),
(50,536,cs),
(166,536,ls),
(176,536,o),
(186,543,o),
(186,554,cs),
(189,650,o),
(368,651,o),
(368,534,cs),
(368,479,o),
(319,429,o),
(277,429,cs),
(96,429,ls),
(84,429,o),
(72,422,o),
(78,410,cs),
(178,217,ls),
(183,207,o),
(184,199,o),
(196,199,cs)
);
},
{
closed = 1;
nodes = (
(310,-1,ls),
(319,-1,o),
(328,7,o),
(328,17,cs),
(328,130,ls),
(328,142,o),
(319,149,o),
(310,149,cs),
(196,149,ls),
(184,149,o),
(178,142,o),
(178,130,cs),
(178,17,ls),
(178,7,o),
(184,-1,o),
(196,-1,cs)
);
}
);
width = 564;
}
);
unicode = 63;
},
{
glyphname = questiondown;
lastChange = "2023-10-23 09:08:19 +0000";
layers = (
{
layerId = m01;
shapes = (
{
closed = 1;
nodes = (
(242,450,ls),
(233,450,o),
(224,442,o),
(224,432,cs),
(224,375,ls),
(224,366,o),
(218,359,o),
(209,357,cs),
(100,328,o),
(19,229,o),
(20,110,cs),
(20,-29,o),
(134,-142,o),
(273,-141,cs),
(406,-141,o),
(513,-38,o),
(524,92,cs),
(525,105,o),
(515,114,o),
(503,114,cs),
(387,113,ls),
(377,113,o),
(368,106,o),
(368,95,cs),
(365,-1,o),
(186,-3,o),
(185,114,cs),
(185,169,o),
(234,220,o),
(276,220,cs),
(457,221,ls),
(469,221,o),
(481,228,o),
(475,240,cs),
(374,432,ls),
(369,442,o),
(368,450,o),
(356,450,cs)
);
},
{
closed = 1;
nodes = (
(241,650,ls),
(232,650,o),
(223,642,o),
(223,632,cs),
(224,519,ls),
(224,507,o),
(233,500,o),
(242,500,cs),
(356,500,ls),
(368,500,o),
(374,507,o),
(374,519,cs),
(373,632,ls),
(373,642,o),
(367,650,o),
(355,650,cs)
);
}
);
width = 544;
}
);
unicode = 191;
},
{
glyphname = periodcentered;
lastChange = "2023-10-23 08:55:17 +0000";
layers = (
{
layerId = m01;
shapes = (
{
closed = 1;
nodes = (
(27,249,o),
(20,257,o),
(20,267,cs),
(20,380,ls),
(20,392,o),
(27,398,o),
(39,398,cs),
(153,398,ls),
(163,398,o),
(172,392,o),
(172,380,cs),
(172,267,ls),
(172,257,o),
(163,249,o),
(153,249,cs),
(39,249,ls)
);
}
);
width = 192;
}
);
unicode = 183;
},
{
glyphname = bullet;
lastChange = "2023-10-13 12:18:26 +0000";
layers = (
{
layerId = m01;
shapes = (
{
closed = 1;
nodes = (
(28,154,o),
(20,165,o),
(20,178,cs),
(20,329,ls),
(20,345,o),
(28,354,o),
(45,354,cs),
(195,354,ls),
(209,354,o),
(220,345,o),
(220,329,cs),
(220,178,ls),
(220,165,o),
(209,154,o),
(195,154,cs),
(45,154,ls)
);
}
);
width = 240;
}
);
unicode = 8226;
},
{
glyphname = asterisk;
lastChange = "2023-10-13 11:46:33 +0000";
layers = (
{
layerId = m01;
shapes = (
{
closed = 1;
nodes = (
(193,401,ls),
(199,401,o),
(205,406,o),
(205,413,cs),
(205,428,ls),
(205,446,o),
(224,453,o),
(236,441,cs),
(247,429,ls),
(252,424,o),
(260,423,o),
(265,428,cs),
(291,454,ls),
(297,459,o),
(297,466,o),
(292,471,cs),
(270,495,ls),
(259,506,o),
(266,524,o),
(283,524,cs),
(316,524,ls),
(323,524,o),
(328,530,o),
(328,536,cs),
(328,573,ls),
(328,580,o),
(323,586,o),
(316,586,cs),
(297,586,ls),
(279,586,o),
(271,604,o),
(284,616,cs),
(295,628,ls),
(300,632,o),
(301,641,o),
(296,645,cs),
(270,672,ls),
(265,677,o),
(258,678,o),
(252,673,cs),
(234,655,ls),
(223,643,o),
(205,651,o),
(205,668,cs),
(205,696,ls),
(205,704,o),
(199,709,o),
(193,709,cs),
(156,709,ls),
(149,709,o),
(143,704,o),
(143,696,cs),
(143,672,ls),
(143,655,o),
(125,646,o),
(113,659,cs),
(97,676,ls),
(91,681,o),
(84,681,o),
(79,677,cs),
(52,651,ls),
(47,646,o),
(46,638,o),
(52,633,cs),
(69,615,ls),
(80,603,o),
(72,586,o),
(56,586,cs),
(33,586,ls),
(25,586,o),
(20,580,o),
(20,573,cs),
(20,536,ls),
(20,530,o),
(25,524,o),
(33,524,cs),
(52,524,ls),
(70,524,o),
(78,505,o),
(65,493,cs),
(48,477,ls),
(43,472,o),
(43,464,o),
(48,459,cs),
(73,432,ls),
(78,428,o),
(86,426,o),
(91,432,cs),
(114,454,ls),
(126,466,o),
(143,458,o),
(143,441,cs),
(143,413,ls),
(143,406,o),
(149,401,o),
(156,401,cs)
);
}
);
width = 348;
}
);
unicode = 42;
},
{
glyphname = numbersign;
lastChange = "2023-10-13 08:14:56 +0000";
layers = (
{
layerId = m01;
shapes = (
{
closed = 1;
nodes = (
(306,0,ls),
(316,1,o),
(324,10,o),
(324,20,cs),
(324,77,ls),
(324,87,o),
(332,95,o),
(342,96,cs),
(401,101,ls),
(413,102,o),
(424,93,o),
(424,80,cs),
(424,33,ls),
(424,20,o),
(434,11,o),
(447,12,cs),
(606,26,ls),
(616,27,o),
(624,36,o),
(624,46,cs),
(624,103,ls),
(624,113,o),
(632,121,o),
(642,122,cs),
(702,127,ls),
(712,128,o),
(720,137,o),
(720,147,cs),
(720,306,ls),
(720,319,o),
(709,328,o),
(697,327,cs),
(647,323,ls),
(634,322,o),
(624,331,o),
(624,344,cs),
(624,401,ls),
(624,411,o),
(632,419,o),
(642,420,cs),
(702,425,ls),
(712,426,o),
(720,435,o),
(720,445,cs),
(720,604,ls),
(720,617,o),
(709,626,o),
(697,625,cs),
(647,621,ls),
(634,620,o),
(624,629,o),
(624,642,cs),
(624,705,ls),
(624,718,o),
(614,727,o),
(601,726,cs),
(442,712,ls),
(432,711,o),
(424,702,o),
(424,692,cs),
(424,619,ls),
(424,609,o),
(416,601,o),
(406,600,cs),
(347,595,ls),
(335,594,o),
(324,603,o),
(324,616,cs),
(324,679,ls),
(324,692,o),
(314,701,o),
(301,700,cs),
(142,686,ls),
(132,685,o),
(124,676,o),
(124,666,cs),
(124,593,ls),
(124,583,o),
(116,575,o),
(106,574,cs),
(38,568,ls),
(28,567,o),
(20,558,o),
(20,548,cs),
(20,389,ls),
(20,376,o),
(30,367,o),
(43,368,cs),
(101,373,ls),
(114,374,o),
(124,365,o),
(124,352,cs),
(124,295,ls),
(124,285,o),
(116,277,o),
(106,276,cs),
(38,270,ls),
(28,269,o),
(20,260,o),
(20,250,cs),
(20,91,ls),
(20,78,o),
(30,69,o),
(43,70,cs),
(101,75,ls),
(114,76,o),
(124,67,o),
(124,54,cs),
(124,7,ls),
(124,-6,o),
(134,-15,o),
(147,-14,cs)
);
},
{
closed = 1;
nodes = (
(324,375,ls),
(324,385,o),
(332,393,o),
(342,394,cs),
(401,399,ls),
(413,400,o),
(424,391,o),
(424,378,cs),
(424,321,ls),
(424,311,o),
(416,303,o),
(406,302,cs),
(347,297,ls),
(335,296,o),
(324,305,o),
(324,318,cs)
);
}
);
width = 740;
}
);
unicode = 35;
},
{
glyphname = slash;
lastChange = "2023-10-13 12:18:14 +0000";
layers = (
{
layerId = m01;
shapes = (
{
closed = 1;
nodes = (
(10,16,o),
(7,27,o),
(12,35,cs),
(408,734,ls),
(414,744,o),
(425,746,o),
(439,739,cs),
(571,663,ls),
(581,658,o),
(588,646,o),
(582,635,cs),
(186,-63,ls),
(181,-72,o),
(167,-73,o),
(156,-67,cs),
(24,8,ls)
);
}
);
width = 594;
},
{
associatedMasterId = m01;
layerId = "C1A2A584-EA05-491D-AE5C-51F06DB11B1F";
name = "13. Okt. 23, 10:04";
shapes = (
{
closed = 1;
nodes = (
(57,-50,o),
(55,-40,o),
(60,-32,cs),
(418,698,ls),
(423,709,o),
(432,713,o),
(442,708,cs),
(545,657,ls),
(553,653,o),
(558,643,o),
(553,632,cs),
(195,-98,ls),
(190,-107,o),
(179,-110,o),
(170,-106,cs),
(68,-56,ls)
);
}
);
width = 600;
}
);
unicode = 47;
},
{
glyphname = backslash;
lastChange = "2023-10-13 12:18:09 +0000";
layers = (
{
layerId = m01;
shapes = (
{
closed = 1;
nodes = (
(584,16,o),
(587,27,o),
(582,35,cs),
(186,734,ls),
(180,744,o),
(169,746,o),
(155,739,cs),
(23,663,ls),
(13,658,o),
(7,646,o),
(12,635,cs),
(408,-63,ls),
(413,-72,o),
(427,-73,o),
(438,-67,cs),
(570,8,ls)
);
}
);
width = 594;
}
);
unicode = 92;
},
{
glyphname = hyphen;
lastChange = "2023-10-13 12:18:04 +0000";
layers = (
{
layerId = m01;
shapes = (
{
closed = 1;
nodes = (
(20,246,ls),
(20,235,o),
(29,226,o),
(40,226,cs),
(399,226,ls),
(410,226,o),
(419,235,o),
(419,246,cs),
(419,351,ls),
(419,362,o),
(410,371,o),
(399,371,cs),
(40,371,ls),
(29,371,o),
(20,362,o),
(20,351,cs)
);
}
);
width = 439;
}
);
unicode = 45;
},
{
glyphname = emdash;
lastChange = "2023-10-13 12:17:53 +0000";
layers = (
{
layerId = m01;
shapes = (
{
closed = 1;
nodes = (
(10,165,ls),
(10,154,o),
(19,145,o),
(30,145,cs),
(568,145,ls),
(579,145,o),
(588,154,o),
(588,165,cs),
(588,310,ls),
(588,321,o),
(579,330,o),
(568,330,cs),
(30,330,ls),
(19,330,o),
(10,321,o),
(10,310,cs)
);
}
);
width = 598;
}
);
unicode = 8212;
},
{
glyphname = underscore;
lastChange = "2023-10-13 12:17:48 +0000";
layers = (
{
layerId = m01;
shapes = (
{
closed = 1;
nodes = (
(20,-181,ls),
(20,-192,o),
(29,-201,o),
(40,-201,cs),
(578,-201,ls),
(589,-201,o),
(598,-192,o),
(598,-181,cs),
(598,-36,ls),
(598,-25,o),
(589,-16,o),
(578,-16,cs),
(40,-16,ls),
(29,-16,o),
(20,-25,o),
(20,-36,cs)
);
}
);
width = 618;
}
);
unicode = 95;
},
{
glyphname = parenleft;
lastChange = "2023-10-13 08:32:10 +0000";
layers = (
{
layerId = m01;
shapes = (
{
closed = 1;
nodes = (
(116,-5,ls),
(109,-5,o),
(103,-1,o),
(100,5,cs),
(-7,234,o),
(-5,462,o),
(100,691,cs),
(103,697,o),
(109,701,o),
(116,701,cs),
(267,701,ls),
(286,701,o),
(297,684,o),
(289,667,cs),
(195,455,o),
(193,242,o),
(289,30,cs),
(297,12,o),
(286,-5,o),
(267,-5,cs)
);
}
);
width = 312;
}
);
unicode = 40;
},
{
glyphname = parenright;
lastChange = "2023-10-13 08:32:13 +0000";
layers = (
{
layerId = m01;
shapes = (
{
closed = 1;
nodes = (
(196,-4,ls),
(203,-4,o),
(209,0,o),
(212,6,cs),
(319,235,o),
(317,463,o),
(212,692,cs),
(209,698,o),
(203,702,o),
(196,702,cs),
(45,702,ls),
(26,702,o),
(15,685,o),
(23,668,cs),
(117,456,o),
(119,243,o),
(23,31,cs),
(15,13,o),
(26,-4,o),
(45,-4,cs)
);
}
);
width = 312;
}
);
unicode = 41;
},
{
glyphname = braceleft;
lastChange = "2023-10-13 12:17:37 +0000";
layers = (
{
layerId = m01;
shapes = (
{
closed = 1;
nodes = (
(411,-171,ls),
(424,-171,o),
(436,-160,o),
(436,-146,cs),
(436,-41,ls),
(436,-28,o),
(424,-16,o),
(411,-16,cs),
(317,-16,ls),
(302,-16,o),
(291,-6,o),
(291,10,cs),
(292,156,ls),
(292,163,o),
(290,171,o),
(284,175,cs),
(213,249,ls),
(201,259,o),
(202,272,o),
(213,283,cs),
(281,353,ls),
(288,360,o),
(292,365,o),
(292,376,cs),
(292,496,ls),
(292,510,o),
(304,521,o),
(317,521,cs),
(414,521,ls),
(428,521,o),
(439,533,o),
(439,546,cs),
(439,664,ls),
(439,677,o),
(428,689,o),
(414,689,cs),
(147,689,ls),
(133,689,o),
(119,677,o),
(119,664,cs),
(118,380,ls),
(118,376,o),
(118,370,o),
(115,365,cs),
(28,279,l),
(27,278,ls),
(17,266,o),
(19,250,o),
(28,241,cs),
(116,163,ls),
(119,159,o),
(122,152,o),
(122,148,c),
(122,-146,l),
(122,-160,o),
(133,-171,o),
(147,-171,cs)
);
}
);
width = 459;
}
);
unicode = 123;
},
{
glyphname = braceright;
lastChange = "2023-10-13 11:16:30 +0000";
layers = (
{
layerId = m01;
shapes = (
{
closed = 1;
nodes = (
(47,-170,ls),
(34,-170,o),
(22,-159,o),
(22,-145,cs),
(22,-40,ls),
(22,-28,o),
(34,-16,o),
(47,-16,cs),
(141,-16,ls),
(156,-16,o),
(167,-6,o),
(167,10,cs),
(166,156,ls),
(166,163,o),
(168,171,o),
(174,175,cs),
(245,249,ls),
(257,259,o),
(256,271,o),
(245,282,cs),
(177,353,ls),
(170,360,o),
(166,365,o),
(166,376,cs),
(166,496,ls),
(166,510,o),
(154,521,o),
(141,521,cs),
(44,521,ls),
(30,521,o),
(20,532,o),
(20,545,cs),
(20,663,ls),
(20,676,o),
(30,688,o),
(44,688,cs),
(311,688,ls),
(325,688,o),
(339,676,o),
(339,663,cs),
(340,380,ls),
(340,376,o),
(340,370,o),
(343,365,cs),
(430,278,l),
(431,277,ls),
(441,265,o),
(439,250,o),
(430,242,cs),
(342,163,ls),
(339,159,o),
(336,152,o),
(336,148,c),
(336,-145,l),
(336,-159,o),
(325,-170,o),
(311,-170,cs)
);
}
);
width = 458;
}
);
unicode = 125;
},
{
glyphname = bracketleft;
lastChange = "2023-10-13 11:17:47 +0000";
layers = (
{
layerId = m01;
shapes = (
{
closed = 1;
nodes = (
(42,-1,ls),
(31,-1,o),
(20,8,o),
(20,20,cs),
(20,674,ls),
(20,688,o),
(31,697,o),
(42,697,cs),
(348,697,ls),
(362,697,o),
(369,688,o),
(369,674,cs),
(369,538,ls),
(369,527,o),
(362,517,o),
(348,517,cs),
(207,517,l),
(207,180,l),
(348,180,ls),
(362,180,o),
(369,170,o),
(369,156,cs),
(369,20,ls),
(369,8,o),
(362,-1,o),
(348,-1,cs)
);
}
);
width = 389;
}
);
unicode = 91;
},
{
glyphname = bracketright;
lastChange = "2023-10-13 11:18:41 +0000";
layers = (
{
layerId = m01;
shapes = (
{
closed = 1;
nodes = (
(346,-1,ls),
(357,-1,o),
(368,8,o),
(368,20,cs),
(368,674,ls),
(368,688,o),
(357,697,o),
(346,697,cs),
(40,697,ls),
(26,697,o),
(20,688,o),
(20,674,cs),
(20,538,ls),
(20,527,o),
(26,517,o),
(40,517,cs),
(181,517,l),
(181,180,l),
(40,180,ls),
(26,180,o),
(20,170,o),
(20,156,cs),
(20,20,ls),
(20,8,o),
(26,-1,o),
(40,-1,cs)
);
}
);
width = 388;
}
);
unicode = 93;
},
{
glyphname = quotedblleft;
lastChange = "2023-10-13 11:14:05 +0000";
layers = (
{
layerId = m01;
shapes = (
{
closed = 1;
nodes = (
(164,655,ls),
(162,657,o),
(160,659,o),
(160,663,cs),
(160,748,ls),
(160,757,o),
(167,762,o),
(175,762,cs),
(260,762,ls),
(269,762,o),
(274,757,o),
(274,748,cs),
(274,656,l),
(294,576,l),
(295,574,o),
(294,570,o),
(294,568,c),
(293,567,o),
(293,566,o),
(292,564,c),
(280,549,ls),
(275,541,o),
(261,540,o),
(255,548,cs)
);
},
{
closed = 1;
nodes = (
(23,655,ls),
(21,657,o),
(20,659,o),
(20,663,cs),
(20,748,ls),
(20,757,o),
(27,762,o),
(35,762,cs),
(120,762,ls),
(129,762,o),
(134,757,o),
(134,748,cs),
(134,656,l),
(154,576,ls),
(155,573,o),
(154,568,o),
(152,566,c),
(140,549,ls),
(135,541,o),
(121,540,o),
(115,548,cs)
);
}
);
width = 314;
}
);
unicode = 8220;
},
{
glyphname = quotedblright;
lastChange = "2023-10-13 11:14:02 +0000";
layers = (
{
layerId = m01;
shapes = (
{
closed = 1;
nodes = (
(150,655,ls),
(152,657,o),
(154,659,o),
(154,663,cs),
(154,748,ls),
(154,757,o),
(147,762,o),
(139,762,cs),
(54,762,ls),
(45,762,o),
(40,757,o),
(40,748,cs),
(40,656,l),
(20,576,l),
(19,574,o),
(20,570,o),
(20,568,c),
(21,567,o),
(21,566,o),
(22,564,c),
(34,549,ls),
(39,541,o),
(53,540,o),
(59,548,cs)
);
},
{
closed = 1;
nodes = (
(290,655,ls),
(292,657,o),
(294,659,o),
(294,663,cs),
(294,748,ls),
(294,757,o),
(287,762,o),
(279,762,cs),
(194,762,ls),
(185,762,o),
(180,757,o),
(180,748,cs),
(180,656,l),
(160,576,ls),
(159,573,o),
(160,568,o),
(162,566,c),
(174,549,ls),
(179,541,o),
(193,540,o),
(199,548,cs)
);
}
);
width = 314;
}
);
unicode = 8221;
},
{
glyphname = quoteleft;
lastChange = "2023-10-13 11:14:20 +0000";
layers = (
{
layerId = m01;
shapes = (
{
closed = 1;
nodes = (
(23,655,ls),
(21,657,o),
(20,659,o),
(20,663,cs),
(20,748,ls),
(20,757,o),
(27,762,o),
(35,762,cs),
(120,762,ls),
(129,762,o),
(134,757,o),
(134,748,cs),
(134,656,l),
(154,576,ls),
(155,573,o),
(154,568,o),
(152,566,c),
(140,549,ls),
(135,541,o),
(121,540,o),
(115,548,cs)
);
}
);
width = 174;
}
);
unicode = 8216;
},
{
glyphname = quoteright;
lastChange = "2023-10-23 09:31:05 +0000";
layers = (
{
layerId = m01;
shapes = (
{
closed = 1;
nodes = (
(151,655,ls),
(153,657,o),
(154,659,o),
(154,663,cs),
(154,748,ls),
(154,757,o),
(147,762,o),
(139,762,cs),
(54,762,ls),
(45,762,o),
(40,757,o),
(40,748,cs),
(40,656,l),
(20,576,ls),
(20,573,o),
(20,568,o),
(22,566,c),
(34,549,ls),
(39,541,o),
(53,540,o),
(59,548,cs)
);
}
);
width = 174;
}
);
unicode = 8217;
},
{
glyphname = guillemetleft;
lastChange = "2023-10-23 09:08:07 +0000";
layers = (
{
layerId = m01;
shapes = (
{
closed = 1;
nodes = (
(57,277,ls),
(48,269,o),
(52,255,o),
(58,248,cs),
(98,210,ls),
(106,202,o),
(117,199,o),
(126,211,cs),
(248,338,ls),
(259,349,o),
(258,361,o),
(251,367,cs),
(211,406,ls),
(202,417,o),
(192,415,o),
(183,406,cs)
);
},
{
closed = 1;
nodes = (
(56,276,ls),
(47,268,o),
(50,255,o),
(57,247,cs),
(185,124,ls),
(193,116,o),
(208,119,o),
(214,125,cs),
(254,164,ls),
(262,173,o),
(262,187,o),
(254,193,cs),
(127,318,ls),
(118,326,o),
(106,324,o),
(98,317,cs)
);
},
{
closed = 1;
nodes = (
(224,284,ls),
(216,275,o),
(220,261,o),
(227,255,cs),
(266,216,ls),
(274,208,o),
(285,205,o),
(295,216,cs),
(416,344,ls),
(427,355,o),
(426,367,o),
(419,373,cs),
(380,413,ls),
(370,423,o),
(360,421,o),
(351,412,cs)
);
},
{
closed = 1;
nodes = (
(224,282,ls),
(215,274,o),
(218,261,o),
(226,254,cs),
(353,130,ls),
(361,122,o),
(376,125,o),
(382,131,cs),
(422,171,ls),
(430,179,o),
(430,193,o),
(423,200,cs),
(295,324,ls),
(286,332,o),
(274,330,o),
(266,323,cs)
);
}
);
width = 478;
}
);
unicode = 171;
},
{
glyphname = guillemetright;
lastChange = "2023-10-13 12:16:39 +0000";
layers = (
{
layerId = m01;
shapes = (
{
closed = 1;
nodes = (
(391,277,ls),
(400,269,o),
(396,255,o),
(390,248,cs),
(350,210,ls),
(342,202,o),
(331,199,o),
(322,211,cs),
(200,338,ls),
(189,349,o),
(190,361,o),
(197,367,cs),
(237,406,ls),
(246,417,o),
(256,415,o),
(265,406,cs)
);
},
{
closed = 1;
nodes = (
(392,276,ls),
(401,268,o),
(398,255,o),
(391,247,cs),
(263,124,ls),
(255,116,o),
(240,119,o),
(234,125,cs),
(194,164,ls),
(186,173,o),
(186,187,o),
(194,193,cs),
(321,318,ls),
(330,326,o),
(342,324,o),
(350,317,cs)
);
},
{
closed = 1;
nodes = (
(224,284,ls),
(232,275,o),
(228,261,o),
(221,255,cs),
(182,216,ls),
(174,208,o),
(163,205,o),
(153,216,cs),
(32,344,ls),
(21,355,o),
(22,367,o),
(29,373,cs),
(68,413,ls),
(78,423,o),
(88,421,o),
(97,412,cs)
);
},
{
closed = 1;
nodes = (
(224,282,ls),
(233,274,o),
(230,261,o),
(222,254,cs),
(95,130,ls),
(87,122,o),
(72,125,o),
(66,131,cs),
(26,171,ls),
(18,179,o),
(18,193,o),
(25,200,cs),
(153,324,ls),
(162,332,o),
(174,330,o),
(182,323,cs)
);
}
);
width = 418;
}
);
unicode = 187;
},
{
glyphname = guilsinglleft;
lastChange = "2023-10-13 07:55:56 +0000";
layers = (
{
layerId = m01;
shapes = (
{
closed = 1;
nodes = (
(184,277,ls),
(175,269,o),
(179,255,o),
(185,248,cs),
(225,210,ls),
(233,202,o),
(244,199,o),
(253,211,cs),
(375,338,ls),
(386,349,o),
(385,361,o),
(378,367,cs),
(338,406,ls),
(329,417,o),
(319,415,o),
(310,406,cs)
);
},
{
closed = 1;
nodes = (
(183,276,ls),
(174,268,o),
(177,255,o),
(184,247,cs),
(312,124,ls),
(320,116,o),
(335,119,o),
(341,125,cs),
(381,164,ls),
(389,173,o),
(389,187,o),
(381,193,cs),
(254,318,ls),
(245,326,o),
(233,324,o),
(225,317,cs)
);
}
);
width = 600;
}
);
unicode = 8249;
},
{
glyphname = guilsinglright;
lastChange = "2023-10-13 12:16:29 +0000";
layers = (
{
layerId = m01;
shapes = (
{
closed = 1;
nodes = (
(225,277,ls),
(234,269,o),
(230,255,o),
(224,248,cs),
(184,210,ls),
(175,202,o),
(164,199,o),
(155,211,cs),
(32,338,ls),
(21,349,o),
(22,361,o),
(29,367,cs),
(70,406,ls),
(79,417,o),
(89,415,o),
(98,406,cs)
);
},
{
closed = 1;
nodes = (
(226,276,ls),
(235,268,o),
(232,255,o),
(225,247,cs),
(96,124,ls),
(88,116,o),
(73,119,o),
(66,125,cs),
(26,164,ls),
(18,173,o),
(18,187,o),
(26,193,cs),
(154,318,ls),
(163,326,o),
(175,324,o),
(184,317,cs)
);
}
);
width = 252;
}
);
unicode = 8250;
},
{
glyphname = quotedbl;
lastChange = "2023-10-13 12:16:34 +0000";
layers = (
{
layerId = m01;
shapes = (
{
closed = 1;
nodes = (
(211,521,o),
(207,528,o),
(206,536,cs),
(186,702,ls),
(185,712,o),
(191,717,o),
(201,717,cs),
(313,717,ls),
(321,717,o),
(329,712,o),
(328,702,cs),
(308,536,ls),
(307,528,o),
(301,521,o),
(293,521,cs),
(221,521,ls)
);
},
{
closed = 1;
nodes = (
(45,520,o),
(41,527,o),
(40,535,cs),
(20,701,ls),
(19,711,o),
(25,716,o),
(35,716,cs),
(147,716,ls),
(155,716,o),
(163,711,o),
(162,701,cs),
(142,535,ls),
(141,527,o),
(135,520,o),
(127,520,cs),
(55,520,ls)
);
}
);
width = 348;
}
);
unicode = 34;
},
{
glyphname = quotesingle;
lastChange = "2023-10-13 12:17:09 +0000";
layers = (
{
layerId = m01;
shapes = (
{
closed = 1;
nodes = (
(45,521,o),
(41,528,o),
(40,536,cs),
(20,702,ls),
(19,712,o),
(25,717,o),
(35,717,cs),
(147,717,ls),
(155,717,o),
(163,712,o),
(162,702,cs),
(142,536,ls),
(141,528,o),
(135,521,o),
(127,521,cs),
(55,521,ls)
);
}
);
width = 182;
}
);
unicode = 39;
},
{
glyphname = guilsinglright.001;
layers = (
{
layerId = m01;
shapes = (
{
closed = 1;
nodes = (
(225,277,ls),
(234,269,o),
(230,255,o),
(224,248,cs),
(184,210,ls),
(175,202,o),
(164,199,o),
(155,211,cs),
(32,338,ls),
(21,349,o),
(22,361,o),
(29,367,cs),
(70,406,ls),
(79,417,o),
(89,415,o),
(98,406,cs)
);
},
{
closed = 1;
nodes = (
(226,276,ls),
(235,268,o),
(232,255,o),
(225,247,cs),
(96,124,ls),
(88,116,o),
(73,119,o),
(66,125,cs),
(26,164,ls),
(18,173,o),
(18,187,o),
(26,193,cs),
(154,318,ls),
(163,326,o),
(175,324,o),
(184,317,cs)
);
}
);
width = 252;
}
);
},
{
glyphname = at;
lastChange = "2023-10-13 09:13:34 +0000";
layers = (
{
layerId = m01;
shapes = (
{
closed = 1;
nodes = (
(406,-100,o),
(412,-93,o),
(456,-71,cs),
(468,-66,o),
(469,-51,o),
(459,-41,cs),
(417,1,ls),
(411,7,o),
(405,7,o),
(399,5,cs),
(237,-61,o),
(110,75,o),
(110,215,cs),
(110,347,o),
(218,452,o),
(352,452,cs),
(485,452,o),
(567,347,o),
(567,215,cs),
(567,119,o),
(501,54,o),
(501,133,cs),
(501,356,ls),
(501,366,o),
(493,374,o),
(484,374,cs),
(437,374,ls),
(420,374,o),
(408,363,o),
(408,363,cs),
(410,359,o),
(383,377,o),
(358,385,cs),
(345,390,o),
(331,392,o),
(316,392,cs),
(230,392,o),
(162,309,o),
(162,208,cs),
(162,105,o),
(230,22,o),
(316,22,cs),
(345,22,o),
(371,32,o),
(395,47,cs),
(404,54,o),
(412,52,o),
(419,43,cs),
(435,21,o),
(463,6,o),
(510,7,cs),
(624,8,o),
(662,115,o),
(662,215,cs),
(662,396,o),
(538,542,o),
(354,542,cs),
(169,542,o),
(20,396,o),
(20,215,cs),
(20,34,o),
(169,-117,o),
(354,-104,cs)
);
},
{
closed = 1;
nodes = (
(281,105,o),
(242,152,o),
(242,209,cs),
(242,266,o),
(281,311,o),
(329,311,cs),
(377,311,o),
(415,266,o),
(415,209,cs),
(415,152,o),
(377,105,o),
(329,105,cs)
);
}
);
width = 682;
}
);
unicode = 64;
},
{
glyphname = ampersand;
lastChange = "2023-10-13 09:26:16 +0000";
layers = (
{
layerId = m01;
shapes = (
{
closed = 1;
nodes = (
(529,4,ls),
(537,4,o),
(544,11,o),
(544,19,cs),
(544,250,ls),
(544,261,o),
(553,270,o),
(564,270,cs),
(604,270,ls),
(615,270,o),
(624,279,o),
(624,290,cs),
(624,404,ls),
(624,415,o),
(615,424,o),
(604,424,cs),
(294,423,ls),
(246,423,o),
(245,443,o),
(245,470,cs),
(245,493,o),
(246,516,o),
(294,516,cs),
(544,516,ls),
(555,516,o),
(564,525,o),
(564,536,cs),
(564,689,ls),
(564,697,o),
(557,704,o),
(549,704,cs),
(328,704,ls),
(42,704,o),
(29,499,o),
(70,391,cs),
(72,386,o),
(71,381,o),
(67,377,cs),
(-27,271,o),
(10,4,o),
(263,4,cs)
);
},
{
closed = 1;
nodes = (
(246,177,o),
(245,197,o),
(245,224,cs),
(245,247,o),
(246,270,o),
(294,270,cs),
(316,270,ls),
(317,270,o),
(318,270,o),
(319,269,cs),
(321,269,o),
(323,269,o),
(325,267,cs),
(328,264,o),
(331,260,o),
(331,255,cs),
(331,192,ls),
(331,184,o),
(324,177,o),
(316,177,cs),
(294,177,ls)
);
}
);
width = 644;
}
);
unicode = 38;
},
{
glyphname = dieresis;
lastChange = "2023-10-23 09:09:14 +0000";
layers = (
{
layerId = m01;
shapes = (
{
closed = 1;
nodes = (
(156,546,o),
(151,553,o),
(151,561,cs),
(151,652,ls),
(151,662,o),
(156,667,o),
(166,667,cs),
(258,667,ls),
(266,667,o),
(273,662,o),
(273,652,cs),
(273,561,ls),
(273,553,o),
(266,546,o),
(258,546,cs),
(166,546,ls)
);
},
{
closed = 1;
nodes = (
(314,546,o),
(309,553,o),
(309,561,cs),
(309,652,ls),
(309,662,o),
(314,667,o),
(324,667,cs),
(416,667,ls),
(424,667,o),
(431,662,o),
(431,652,cs),
(431,561,ls),
(431,553,o),
(424,546,o),
(416,546,cs),
(324,546,ls)
);
}
);
width = 300;
}
);
unicode = 168;
},
{
glyphname = dotaccent;
lastChange = "2023-10-12 13:53:10 +0000";
layers = (
{
layerId = m01;
shapes = (
{
closed = 1;
nodes = (
(242,596,o),
(237,603,o),
(237,611,cs),
(237,702,ls),
(237,712,o),
(242,717,o),
(252,717,cs),
(344,717,ls),
(352,717,o),
(359,712,o),
(359,702,cs),
(359,611,ls),
(359,603,o),
(352,596,o),
(344,596,cs),
(252,596,ls)
);
}
);
width = 600;
}
);
unicode = 729;
},
{
glyphname = grave;
lastChange = "2023-10-13 06:53:19 +0000";
layers = (
{
layerId = m01;
shapes = (
{
closed = 1;
nodes = (
(351,622,ls),
(358,615,o),
(353,602,o),
(341,595,cs),
(291,566,ls),
(279,559,o),
(266,560,o),
(258,566,cs),
(112,672,ls),
(102,680,o),
(107,693,o),
(119,701,cs),
(201,752,ls),
(214,760,o),
(230,760,o),
(238,750,cs)
);
}
);
width = 600;
}
);
unicode = 96;
},
{
glyphname = acute;
lastChange = "2023-10-13 06:53:42 +0000";
layers = (
{
layerId = m01;
shapes = (
{
closed = 1;
nodes = (
(198,612,ls),
(192,604,o),
(195,591,o),
(208,585,cs),
(273,555,ls),
(286,549,o),
(299,549,o),
(306,555,cs),
(431,672,ls),
(440,681,o),
(436,693,o),
(424,701,cs),
(342,752,ls),
(329,760,o),
(313,760,o),
(305,750,cs)
);
}
);
width = 600;
}
);
unicode = 180;
},
{
glyphname = hungarumlaut;
lastChange = "2023-10-13 07:00:25 +0000";
layers = (
{
layerId = m01;
shapes = (
{
closed = 1;
nodes = (
(285,597,ls),
(280,591,o),
(282,582,o),
(292,577,cs),
(342,554,ls),
(352,549,o),
(362,549,o),
(367,554,cs),
(463,643,ls),
(470,650,o),
(467,659,o),
(458,665,cs),
(395,705,ls),
(385,711,o),
(373,711,o),
(367,703,cs)
);
},
{
closed = 1;
nodes = (
(183,649,ls),
(179,643,o),
(181,634,o),
(190,629,cs),
(239,603,ls),
(249,598,o),
(260,597,o),
(265,603,cs),
(351,711,ls),
(357,719,o),
(355,728,o),
(346,734,cs),
(283,773,ls),
(273,779,o),
(260,779,o),
(255,771,cs)
);
}
);
width = 600;
}
);
unicode = 733;
},
{
glyphname = circumflex;
lastChange = "2023-10-13 06:54:49 +0000";
layers = (
{
layerId = m01;
shapes = (
{
closed = 1;
nodes = (
(314,744,ls),
(304,753,o),
(291,750,o),
(285,744,cs),
(246,704,ls),
(238,696,o),
(235,685,o),
(246,675,cs),
(373,552,ls),
(383,542,o),
(395,542,o),
(402,549,cs),
(442,590,ls),
(451,599,o),
(450,609,o),
(441,618,cs)
);
},
{
closed = 1;
nodes = (
(313,745,ls),
(304,754,o),
(290,752,o),
(284,745,cs),
(159,618,ls),
(151,610,o),
(153,596,o),
(160,589,cs),
(199,549,ls),
(207,541,o),
(221,540,o),
(228,548,cs),
(353,675,ls),
(361,683,o),
(360,696,o),
(353,704,cs)
);
}
);
width = 600;
}
);
unicode = 710;
},
{
glyphname = caron;
lastChange = "2023-10-13 06:57:28 +0000";
layers = (
{
layerId = m01;
shapes = (
{
closed = 1;
nodes = (
(293,560,ls),
(301,550,o),
(315,554,o),
(322,560,cs),
(361,599,ls),
(369,607,o),
(372,618,o),
(361,627,cs),
(236,752,ls),
(225,763,o),
(213,762,o),
(207,755,cs),
(167,716,ls),
(156,707,o),
(158,697,o),
(167,688,cs)
);
},
{
closed = 1;
nodes = (
(294,559,ls),
(302,549,o),
(315,552,o),
(323,559,cs),
(449,684,ls),
(457,692,o),
(454,707,o),
(448,713,cs),
(410,754,ls),
(401,762,o),
(387,763,o),
(381,755,cs),
(254,630,ls),
(246,622,o),
(247,609,o),
(254,601,cs)
);
}
);
width = 600;
}
);
unicode = 711;
},
{
glyphname = breve;
lastChange = "2023-10-13 06:56:34 +0000";
layers = (
{
layerId = m01;
shapes = (
{
closed = 1;
nodes = (
(346,559,o),
(385,591,o),
(397,634,cs),
(400,647,o),
(389,658,o),
(376,658,cs),
(345,658,ls),
(337,658,o),
(332,653,o),
(329,646,cs),
(323,635,o),
(313,628,o),
(300,628,cs),
(287,628,o),
(276,635,o),
(271,647,cs),
(268,655,o),
(262,660,o),
(254,660,cs),
(223,660,ls),
(210,660,o),
(199,650,o),
(202,636,cs),
(213,591,o),
(253,559,o),
(300,559,cs)
);
}
);
width = 600;
}
);
unicode = 728;
},
{
glyphname = ring;
lastChange = "2023-10-13 06:43:02 +0000";
layers = (
{
layerId = m01;
shapes = (
{
closed = 1;
nodes = (
(355,569,o),
(400,614,o),
(400,670,cs),
(400,725,o),
(355,770,o),
(300,770,cs),
(244,770,o),
(199,725,o),
(199,670,cs),
(199,614,o),
(244,569,o),
(300,569,cs)
);
},
{
closed = 1;
nodes = (
(282,638,o),
(268,652,o),
(268,670,cs),
(268,688,o),
(282,702,o),
(300,702,cs),
(318,702,o),
(332,688,o),
(332,670,cs),
(332,652,o),
(318,638,o),
(300,638,cs)
);
}
);
width = 600;
}
);
unicode = 730;
},
{
glyphname = tilde;
lastChange = "2023-10-23 09:24:06 +0000";
layers = (
{
layerId = m01;
shapes = (
{
closed = 1;
nodes = (
(246,529,o),
(318,560,o),
(346,628,c),
(348,630,l),
(354,645,o),
(371,653,o),
(385,645,cs),
(400,638,o),
(407,618,o),
(400,601,c),
(412,594,l),
(464,567,ls),
(474,562,o),
(486,567,o),
(489,579,cs),
(505,642,o),
(477,710,o),
(423,738,cs),
(362,769,o),
(291,739,o),
(262,671,c),
(262,670,l),
(256,653,o),
(238,646,o),
(223,653,cs),
(209,661,o),
(202,681,o),
(209,697,c),
(209,698,l),
(145,731,ls),
(135,736,o),
(123,731,o),
(120,719,cs),
(105,656,o),
(132,588,o),
(186,560,cs)
);
}
);
width = 600;
}
);
unicode = 732;
},
{
glyphname = macron;
lastChange = "2023-10-13 09:39:04 +0000";
layers = (
{
layerId = m01;
shapes = (
{
closed = 1;
nodes = (
(149,678,ls),
(149,667,o),
(158,658,o),
(169,658,cs),
(424,658,ls),
(435,658,o),
(444,667,o),
(444,678,cs),
(444,708,ls),
(444,719,o),
(435,728,o),
(424,728,cs),
(169,728,ls),
(158,728,o),
(149,719,o),
(149,708,cs)
);
}
);
width = 600;
}
);
unicode = 175;
},
{
glyphname = cedilla;
lastChange = "2023-10-13 06:46:06 +0000";
layers = (
{
layerId = m01;
shapes = (
{
closed = 1;
nodes = (
(301,-167,o),
(339,-134,o),
(339,-92,cs),
(339,-59,o),
(312,-27,o),
(279,-18,cs),
(276,-18,o),
(273,-13,o),
(273,-11,c),
(292,17,l),
(292,20,o),
(292,21,o),
(288,21,c),
(296,29,o),
(233,82,o),
(213,-13,cs),
(204,-55,ls),
(203,-58,o),
(205,-61,o),
(209,-62,cs),
(257,-74,ls),
(281,-80,o),
(277,-110,o),
(256,-110,cs),
(249,-110,o),
(237,-102,o),
(233,-99,cs),
(229,-97,o),
(224,-96,o),
(222,-99,cs),
(197,-134,ls),
(194,-138,o),
(193,-141,o),
(197,-142,cs),
(210,-153,o),
(236,-167,o),
(256,-167,cs)
);
}
